<svg xmlns="http://www.w3.org/2000/svg" xmlns:xlink="http://www.w3.org/1999/xlink" id="Illustration" viewBox="0 0 2149.6 1380"><defs><style>.cls-1,.cls-2{opacity:0.5;}.cls-1{fill:url(#linear-gradient);}.cls-2{fill:url(#linear-gradient-2);}.cls-3{opacity:0.37;}.cls-4{fill:url(#linear-gradient-3);}.cls-10,.cls-118,.cls-12,.cls-130,.cls-16,.cls-19,.cls-5,.cls-9{fill:#fff;}.cls-5{opacity:0.36;}.cls-6{opacity:0.51;}.cls-7{fill:url(#linear-gradient-4);}.cls-8{fill:url(#linear-gradient-5);}.cls-9{opacity:0.3;}.cls-11{fill:url(#linear-gradient-6);}.cls-12{opacity:0.64;}.cls-13{fill:url(#linear-gradient-7);}.cls-14{fill:url(#linear-gradient-8);}.cls-15{fill:url(#linear-gradient-9);}.cls-16,.cls-21{opacity:0.93;}.cls-17{fill:url(#linear-gradient-10);}.cls-18{fill:url(#linear-gradient-11);}.cls-19{opacity:0.29;}.cls-20{fill:url(#linear-gradient-12);}.cls-22{fill:url(#linear-gradient-13);}.cls-23{fill:url(#linear-gradient-14);}.cls-24{fill:url(#linear-gradient-15);}.cls-25{fill:url(#linear-gradient-16);}.cls-26{fill:url(#linear-gradient-17);}.cls-27{fill:url(#linear-gradient-18);}.cls-28{fill:url(#linear-gradient-19);}.cls-29{fill:url(#linear-gradient-20);}.cls-30{fill:url(#linear-gradient-21);}.cls-31{fill:url(#linear-gradient-22);}.cls-32{fill:url(#linear-gradient-23);}.cls-33{fill:url(#linear-gradient-24);}.cls-34{fill:url(#linear-gradient-25);}.cls-35{fill:url(#linear-gradient-26);}.cls-36{fill:url(#linear-gradient-27);}.cls-37{fill:url(#linear-gradient-28);}.cls-38{fill:url(#linear-gradient-29);}.cls-39{fill:url(#linear-gradient-30);}.cls-40{fill:url(#linear-gradient-31);}.cls-41{fill:url(#linear-gradient-32);}.cls-42{fill:url(#linear-gradient-33);}.cls-43{fill:url(#linear-gradient-34);}.cls-44{fill:url(#linear-gradient-35);}.cls-45{fill:url(#linear-gradient-36);}.cls-46{fill:url(#linear-gradient-37);}.cls-47{fill:url(#linear-gradient-38);}.cls-48{fill:url(#linear-gradient-39);}.cls-49{fill:url(#linear-gradient-40);}.cls-50{fill:url(#linear-gradient-41);}.cls-51{fill:url(#linear-gradient-42);}.cls-52{fill:#eac4f9;}.cls-53{fill:url(#_40);}.cls-54{fill:url(#linear-gradient-43);}.cls-55{fill:url(#linear-gradient-44);}.cls-56{fill:url(#linear-gradient-45);}.cls-57{fill:url(#linear-gradient-46);}.cls-58{fill:url(#linear-gradient-47);}.cls-59{fill:url(#linear-gradient-48);}.cls-60{fill:url(#linear-gradient-49);}.cls-61{fill:url(#linear-gradient-50);}.cls-62{fill:url(#linear-gradient-51);}.cls-63{fill:url(#linear-gradient-52);}.cls-64{fill:url(#linear-gradient-53);}.cls-65{fill:url(#linear-gradient-54);}.cls-66{fill:url(#linear-gradient-55);}.cls-67{fill:url(#linear-gradient-56);}.cls-68{fill:url(#linear-gradient-57);}.cls-69{fill:url(#linear-gradient-58);}.cls-70{fill:url(#linear-gradient-59);}.cls-71{fill:url(#linear-gradient-60);}.cls-72{fill:url(#linear-gradient-61);}.cls-73{fill:url(#linear-gradient-62);}.cls-74{fill:url(#linear-gradient-63);}.cls-75{fill:url(#linear-gradient-64);}.cls-76{fill:url(#linear-gradient-65);}.cls-77{fill:url(#linear-gradient-66);}.cls-78{fill:url(#linear-gradient-67);}.cls-79{fill:url(#linear-gradient-68);}.cls-80{fill:url(#linear-gradient-69);}.cls-81{fill:url(#linear-gradient-70);}.cls-82{fill:url(#linear-gradient-71);}.cls-83{fill:url(#linear-gradient-72);}.cls-84{fill:url(#linear-gradient-73);}.cls-85{fill:url(#linear-gradient-74);}.cls-86{fill:url(#linear-gradient-75);}.cls-87{fill:url(#linear-gradient-76);}.cls-88{fill:url(#linear-gradient-77);}.cls-89{fill:url(#linear-gradient-78);}.cls-90{fill:url(#linear-gradient-79);}.cls-91{fill:url(#linear-gradient-80);}.cls-92{fill:url(#linear-gradient-81);}.cls-93{fill:url(#linear-gradient-82);}.cls-94{fill:url(#linear-gradient-83);}.cls-95{fill:url(#linear-gradient-84);}.cls-96{fill:url(#linear-gradient-85);}.cls-97{fill:url(#linear-gradient-86);}.cls-98{fill:url(#linear-gradient-87);}.cls-99{fill:url(#linear-gradient-88);}.cls-100{fill:url(#linear-gradient-89);}.cls-101{fill:url(#linear-gradient-90);}.cls-102{fill:url(#linear-gradient-91);}.cls-103{fill:url(#linear-gradient-92);}.cls-104{fill:url(#linear-gradient-93);}.cls-105{fill:url(#linear-gradient-94);}.cls-106{fill:url(#linear-gradient-95);}.cls-107{fill:url(#linear-gradient-96);}.cls-108{fill:url(#linear-gradient-97);}.cls-109{fill:url(#linear-gradient-98);}.cls-110{fill:url(#linear-gradient-99);}.cls-111{fill:url(#linear-gradient-100);}.cls-112{fill:url(#linear-gradient-101);}.cls-113{fill:url(#linear-gradient-102);}.cls-114{fill:url(#linear-gradient-103);}.cls-115{fill:url(#linear-gradient-104);}.cls-116{fill:url(#linear-gradient-105);}.cls-117{fill:url(#linear-gradient-106);}.cls-118{opacity:0.9;}.cls-119{fill:url(#linear-gradient-107);}.cls-120{fill:url(#linear-gradient-108);}.cls-121{fill:url(#linear-gradient-109);}.cls-122{fill:url(#linear-gradient-110);}.cls-123{fill:url(#linear-gradient-111);}.cls-124{fill:url(#linear-gradient-112);}.cls-125{fill:url(#linear-gradient-113);}.cls-126{fill:url(#linear-gradient-114);}.cls-127{fill:url(#linear-gradient-115);}.cls-128{fill:url(#linear-gradient-116);}.cls-129{fill:url(#linear-gradient-117);}.cls-130{opacity:0.47;}.cls-131{fill:url(#linear-gradient-118);}.cls-132{fill:url(#linear-gradient-119);}.cls-133{fill:url(#linear-gradient-120);}.cls-134{fill:url(#linear-gradient-121);}.cls-135{fill:url(#linear-gradient-122);}.cls-136{fill:url(#linear-gradient-123);}</style><linearGradient id="linear-gradient" x1="-3646.42" y1="1760.98" x2="-1487.61" y2="193.27" gradientTransform="matrix(-1, 0, 0, 1, -1250.98, 0)" gradientUnits="userSpaceOnUse"><stop offset="0" stop-color="#b37cff"></stop><stop offset="1" stop-color="#f895e7"></stop></linearGradient><linearGradient id="linear-gradient-2" x1="-3526.93" y1="1714.16" x2="-1557.52" y2="283.99" xlink:href="#linear-gradient"></linearGradient><linearGradient id="linear-gradient-3" x1="1838.49" y1="138.35" x2="1378.49" y2="1083.21" gradientUnits="userSpaceOnUse"><stop offset="0" stop-color="#a737d5"></stop><stop offset="1" stop-color="#ef497a"></stop></linearGradient><linearGradient id="linear-gradient-4" x1="3054.96" y1="2633.88" x2="3144.49" y2="1684.18" gradientTransform="translate(-1767.4 890) rotate(-31.8)" xlink:href="#linear-gradient-3"></linearGradient><linearGradient id="linear-gradient-5" x1="2756.28" y1="1516.22" x2="2671.95" y2="2203.24" gradientTransform="matrix(0.65, -0.76, 0.76, 0.65, -2745.85, 1701.85)" gradientUnits="userSpaceOnUse"><stop offset="0" stop-color="#53d8ff"></stop><stop offset="1" stop-color="#3840f7"></stop></linearGradient><linearGradient id="linear-gradient-6" x1="169.56" y1="815.5" x2="319.55" y2="1273.14" gradientTransform="translate(301.8 -30.2) rotate(10.5)" gradientUnits="userSpaceOnUse"><stop offset="0" stop-color="#fdf53f"></stop><stop offset="0.66" stop-color="#e57a58"></stop><stop offset="1" stop-color="#d93c65"></stop></linearGradient><linearGradient id="linear-gradient-7" x1="1584.44" y1="266.55" x2="1491.26" y2="961.14" xlink:href="#linear-gradient-3"></linearGradient><linearGradient id="linear-gradient-8" x1="1604.63" y1="269.26" x2="1511.45" y2="963.85" xlink:href="#linear-gradient-3"></linearGradient><linearGradient id="linear-gradient-9" x1="1854.14" y1="178.21" x2="1722.39" y2="475.59" xlink:href="#linear-gradient-3"></linearGradient><linearGradient id="linear-gradient-10" x1="1937.77" y1="497.23" x2="1981.2" y2="366.93" gradientUnits="userSpaceOnUse"><stop offset="0" stop-color="#2b3582"></stop><stop offset="1" stop-color="#150e42"></stop></linearGradient><linearGradient id="linear-gradient-11" x1="2009.34" y1="370.54" x2="1871.21" y2="570.69" gradientTransform="matrix(1, 0, 0, 1, 0, 0)" xlink:href="#linear-gradient-5"></linearGradient><linearGradient id="linear-gradient-12" x1="1948.33" y1="553.81" x2="1964.66" y2="464.54" xlink:href="#linear-gradient-10"></linearGradient><linearGradient id="linear-gradient-13" x1="1718.05" y1="483.59" x2="1584.42" y2="826.15" xlink:href="#linear-gradient-3"></linearGradient><linearGradient id="linear-gradient-14" x1="1615.2" y1="537.39" x2="1580.47" y2="645.89" gradientTransform="matrix(1, 0, 0, 1, 0, 0)" xlink:href="#linear-gradient-5"></linearGradient><linearGradient id="linear-gradient-15" x1="1567.87" y1="589.67" x2="1755.9" y2="589.67" gradientUnits="userSpaceOnUse"><stop offset="0" stop-color="#c32b78"></stop><stop offset="1" stop-color="#593092"></stop></linearGradient><linearGradient id="linear-gradient-16" x1="1709.64" y1="540.53" x2="1695.57" y2="623.74" gradientTransform="matrix(1, 0, 0, 1, 0, 0)" xlink:href="#linear-gradient-5"></linearGradient><linearGradient id="linear-gradient-17" x1="1709.46" y1="563.07" x2="1693.44" y2="655.51" gradientTransform="matrix(1, 0, 0, 1, 0, 0)" xlink:href="#linear-gradient-5"></linearGradient><linearGradient id="linear-gradient-18" x1="1615.2" y1="621.62" x2="1580.47" y2="730.12" gradientTransform="matrix(1, 0, 0, 1, 0, 0)" xlink:href="#linear-gradient-5"></linearGradient><linearGradient id="linear-gradient-19" x1="1567.87" y1="673.9" x2="1755.9" y2="673.9" xlink:href="#linear-gradient-15"></linearGradient><linearGradient id="linear-gradient-20" x1="1709.64" y1="624.76" x2="1695.57" y2="707.96" gradientTransform="matrix(1, 0, 0, 1, 0, 0)" xlink:href="#linear-gradient-5"></linearGradient><linearGradient id="linear-gradient-21" x1="1709.46" y1="647.29" x2="1693.44" y2="739.73" gradientTransform="matrix(1, 0, 0, 1, 0, 0)" xlink:href="#linear-gradient-5"></linearGradient><linearGradient id="linear-gradient-22" x1="1793.46" y1="609.75" x2="1686.93" y2="869.47" gradientUnits="userSpaceOnUse"><stop offset="0" stop-color="#fdf53f"></stop><stop offset="1" stop-color="#d93c65"></stop></linearGradient><linearGradient id="linear-gradient-23" x1="1949.89" y1="673.94" x2="1843.36" y2="933.66" xlink:href="#linear-gradient-22"></linearGradient><linearGradient id="linear-gradient-24" x1="1712.36" y1="535.98" x2="1715.88" y2="706.63" xlink:href="#linear-gradient-22"></linearGradient><linearGradient id="linear-gradient-25" x1="1712.23" y1="535.99" x2="1715.75" y2="706.65" xlink:href="#linear-gradient-22"></linearGradient><linearGradient id="linear-gradient-26" x1="1713.32" y1="535.98" x2="1716.84" y2="706.64" xlink:href="#linear-gradient-22"></linearGradient><linearGradient id="linear-gradient-27" x1="1712.14" y1="536.02" x2="1715.65" y2="706.68" xlink:href="#linear-gradient-22"></linearGradient><linearGradient id="linear-gradient-28" x1="1712" y1="536.03" x2="1715.52" y2="706.69" xlink:href="#linear-gradient-22"></linearGradient><linearGradient id="linear-gradient-29" x1="1713.09" y1="536.02" x2="1716.61" y2="706.68" xlink:href="#linear-gradient-22"></linearGradient><linearGradient id="linear-gradient-30" x1="1711.62" y1="536.06" x2="1715.14" y2="706.72" xlink:href="#linear-gradient-22"></linearGradient><linearGradient id="linear-gradient-31" x1="1712.69" y1="536.05" x2="1716.21" y2="706.72" xlink:href="#linear-gradient-22"></linearGradient><linearGradient id="linear-gradient-32" x1="1863.11" y1="671.19" x2="1866.63" y2="841.99" xlink:href="#linear-gradient-22"></linearGradient><linearGradient id="linear-gradient-33" x1="1885.87" y1="670.72" x2="1889.39" y2="841.52" xlink:href="#linear-gradient-22"></linearGradient><linearGradient id="linear-gradient-34" x1="1434.53" y1="246.44" x2="1341.35" y2="941.03" xlink:href="#linear-gradient-3"></linearGradient><linearGradient id="linear-gradient-35" x1="1582.41" y1="-46.69" x2="1445.01" y2="286.45" xlink:href="#linear-gradient-3"></linearGradient><linearGradient id="linear-gradient-36" x1="1719.85" y1="92.96" x2="1664.03" y2="353.19" gradientTransform="matrix(1, 0, 0, 1, 0, 0)" xlink:href="#linear-gradient-5"></linearGradient><linearGradient id="linear-gradient-37" x1="1665.17" y1="202.06" x2="1635.95" y2="273.31" gradientUnits="userSpaceOnUse"><stop offset="0" stop-color="#18459f"></stop><stop offset="1" stop-color="#2874b5"></stop></linearGradient><linearGradient id="linear-gradient-38" x1="1636.77" y1="253.36" x2="1622.47" y2="288.23" gradientTransform="matrix(1, 0, 0, 1, 0, 0)" xlink:href="#linear-gradient-5"></linearGradient><linearGradient id="linear-gradient-39" x1="1652.75" y1="289.74" x2="1632.43" y2="339.3" gradientTransform="matrix(1, 0, 0, 1, 0, 0)" xlink:href="#linear-gradient-5"></linearGradient><linearGradient id="linear-gradient-40" x1="1671.35" y1="257.21" x2="1651.02" y2="306.77" gradientTransform="matrix(1, 0, 0, 1, 0, 0)" xlink:href="#linear-gradient-5"></linearGradient><linearGradient id="linear-gradient-41" x1="1671.74" y1="327.8" x2="1656.17" y2="365.75" gradientTransform="matrix(1, 0, 0, 1, 0, 0)" xlink:href="#linear-gradient-5"></linearGradient><linearGradient id="linear-gradient-42" x1="1639.28" y1="348.51" x2="1623.72" y2="386.46" gradientTransform="matrix(1, 0, 0, 1, 0, 0)" xlink:href="#linear-gradient-5"></linearGradient><linearGradient id="_40" x1="2128.3" y1="636.47" x2="2124.53" y2="856.69" gradientUnits="userSpaceOnUse"><stop offset="0" stop-color="#a737d5"></stop><stop offset="0.09" stop-color="#ad39cd"></stop><stop offset="1" stop-color="#ef497a"></stop></linearGradient><linearGradient id="linear-gradient-43" x1="2186.34" y1="919.97" x2="2242.8" y2="773.17" xlink:href="#linear-gradient-3"></linearGradient><linearGradient id="linear-gradient-44" x1="395.9" y1="989.3" x2="691.52" y2="654.1" xlink:href="#linear-gradient-3"></linearGradient><linearGradient id="linear-gradient-45" x1="388.85" y1="875.88" x2="386.01" y2="699.34" gradientTransform="translate(8.2 2.3) rotate(-1.6)" gradientUnits="userSpaceOnUse"><stop offset="0" stop-color="#cb236d"></stop><stop offset="1" stop-color="#4c246d"></stop></linearGradient><linearGradient id="linear-gradient-46" x1="718.47" y1="875.83" x2="715.62" y2="699.29" xlink:href="#linear-gradient-45"></linearGradient><linearGradient id="linear-gradient-47" x1="108.26" y1="1337.35" x2="496.43" y2="1266.05" gradientTransform="matrix(1, 0, 0, 1, 0, 0)" xlink:href="#linear-gradient-45"></linearGradient><linearGradient id="linear-gradient-48" x1="251.13" y1="1214.1" x2="352.36" y2="1214.1" xlink:href="#linear-gradient-45"></linearGradient><linearGradient id="linear-gradient-49" x1="6010.23" y1="1387.71" x2="6006.3" y2="1143.83" gradientTransform="matrix(-1, 0.03, 0.03, 1, 6804.64, -183.77)" xlink:href="#linear-gradient-45"></linearGradient><linearGradient id="linear-gradient-50" x1="5951.7" y1="1214.46" x2="6052.92" y2="1214.46" gradientTransform="matrix(-1, 0.03, 0.03, 1, 6804.64, -183.77)" xlink:href="#linear-gradient-45"></linearGradient><linearGradient id="linear-gradient-51" x1="567.51" y1="563.12" x2="581.64" y2="755.61" gradientTransform="matrix(1, 0, 0, 1, 0, 0)" xlink:href="#linear-gradient-45"></linearGradient><linearGradient id="linear-gradient-52" x1="602.61" y1="699.61" x2="604.38" y2="1047.66" xlink:href="#linear-gradient-45"></linearGradient><linearGradient id="linear-gradient-53" x1="-5921.96" y1="725.89" x2="-5920.19" y2="1073.96" gradientTransform="matrix(-1, 0.03, 0.03, 1, -5407.1, 150.01)" xlink:href="#linear-gradient-45"></linearGradient><linearGradient id="linear-gradient-54" x1="450.77" y1="1431.31" x2="665.18" y2="991.91" xlink:href="#linear-gradient-3"></linearGradient><linearGradient id="linear-gradient-55" x1="605.03" y1="1140.73" x2="570.59" y2="1620.25" gradientTransform="matrix(1, 0, 0, 1, 0, 0)" xlink:href="#linear-gradient-45"></linearGradient><linearGradient id="linear-gradient-56" x1="606.69" y1="999.71" x2="588.17" y2="1253.71" gradientTransform="matrix(1, 0, 0, 1, 0, 0)" xlink:href="#linear-gradient-45"></linearGradient><linearGradient id="linear-gradient-57" x1="678.29" y1="637.85" x2="514.25" y2="1217.28" gradientTransform="matrix(1, 0, 0, 1, 0, 0)" xlink:href="#linear-gradient-45"></linearGradient><linearGradient id="linear-gradient-58" x1="396.42" y1="700.13" x2="407.02" y2="852.08" xlink:href="#linear-gradient-45"></linearGradient><linearGradient id="linear-gradient-59" x1="415.84" y1="873.11" x2="417.11" y2="1090.31" gradientTransform="translate(8.2 2.3) rotate(-1.6)" xlink:href="#linear-gradient-22"></linearGradient><linearGradient id="linear-gradient-60" x1="6182.78" y1="302.4" x2="6193.38" y2="454.35" gradientTransform="matrix(-1, 0.03, 0.03, 1, 6920.85, -186.94)" xlink:href="#linear-gradient-45"></linearGradient><linearGradient id="linear-gradient-61" x1="6230.15" y1="873.15" x2="6231.43" y2="1090.87" gradientTransform="matrix(-1, 0.03, 0.03, 1, 6920.85, -186.94)" xlink:href="#linear-gradient-22"></linearGradient><linearGradient id="linear-gradient-62" x1="260.85" y1="1226.8" x2="271.13" y2="1226.8" gradientTransform="translate(8.2 2.3) rotate(-1.6)" xlink:href="#linear-gradient-37"></linearGradient><linearGradient id="linear-gradient-63" x1="827.56" y1="1226.71" x2="837.84" y2="1226.71" gradientTransform="translate(8.2 2.3) rotate(-1.6)" xlink:href="#linear-gradient-37"></linearGradient><linearGradient id="linear-gradient-64" x1="540.23" y1="601.18" x2="198.12" y2="911.46" xlink:href="#linear-gradient-3"></linearGradient><linearGradient id="linear-gradient-65" x1="2022.2" y1="1018.41" x2="2060.49" y2="901.54" xlink:href="#linear-gradient-37"></linearGradient><linearGradient id="linear-gradient-66" x1="2006.52" y1="837.48" x2="2007.19" y2="893.92" xlink:href="#linear-gradient-37"></linearGradient><linearGradient id="linear-gradient-67" x1="2073.92" y1="1159.34" x2="2136.51" y2="1159.34" gradientTransform="matrix(-1, 0.02, 0.02, 1, 4119.34, -45.94)" gradientUnits="userSpaceOnUse"><stop offset="0" stop-color="#f9b776"></stop><stop offset="1" stop-color="#f47960"></stop></linearGradient><linearGradient id="linear-gradient-68" x1="2136.87" y1="1483.01" x2="2183.8" y2="1483.01" gradientTransform="matrix(-1, 0.02, 0.02, 1, 4119.34, -45.94)" xlink:href="#linear-gradient-10"></linearGradient><linearGradient id="linear-gradient-69" x1="2254.37" y1="1427.73" x2="2083.62" y2="1561.81" gradientTransform="matrix(-1, 0.02, 0.02, 1, 4119.34, -45.94)" xlink:href="#linear-gradient-5"></linearGradient><linearGradient id="linear-gradient-70" x1="2149.94" y1="1429.31" x2="2140.93" y2="1507.93" xlink:href="#linear-gradient-67"></linearGradient><linearGradient id="linear-gradient-71" x1="2284.68" y1="1466.36" x2="2113.94" y2="1600.43" gradientTransform="matrix(-1, 0.02, 0.02, 1, 4119.34, -45.94)" xlink:href="#linear-gradient-5"></linearGradient><linearGradient id="linear-gradient-72" x1="2208.33" y1="1484.27" x2="2275.88" y2="1484.27" gradientTransform="matrix(-1, 0.02, 0.02, 1, 4119.34, -45.94)" xlink:href="#linear-gradient-10"></linearGradient><linearGradient id="linear-gradient-73" x1="2222.95" y1="1437.73" x2="2213.94" y2="1516.34" xlink:href="#linear-gradient-67"></linearGradient><linearGradient id="linear-gradient-74" x1="2330.12" y1="1078.25" x2="2042.12" y2="1525.14" gradientTransform="matrix(-1, 0.02, 0.02, 1, 4119.34, -45.94)" xlink:href="#linear-gradient-10"></linearGradient><linearGradient id="linear-gradient-75" x1="1385.79" y1="990.22" x2="1339.51" y2="1443.32" gradientTransform="matrix(-1, 0.02, 0.02, 1, 3351.67, -33.58)" xlink:href="#linear-gradient-22"></linearGradient><linearGradient id="linear-gradient-76" x1="1975.57" y1="919.71" x2="1973" y2="1077.94" gradientTransform="matrix(1, 0, 0, 1, 0, 0)" xlink:href="#linear-gradient-67"></linearGradient><linearGradient id="linear-gradient-77" x1="-80.86" y1="430.18" x2="-141.9" y2="510.93" gradientTransform="matrix(-0.7, -0.72, -0.72, 0.7, 2222.11, 528.79)" xlink:href="#linear-gradient-67"></linearGradient><linearGradient id="linear-gradient-78" x1="-127.34" y1="449.59" x2="-54.59" y2="449.59" gradientTransform="matrix(-0.7, -0.72, -0.72, 0.7, 2222.11, 528.79)" xlink:href="#linear-gradient-10"></linearGradient><linearGradient id="linear-gradient-79" x1="1950.3" y1="1007.34" x2="2027.71" y2="846.12" gradientTransform="matrix(1, 0, 0, 1, 0, 0)" xlink:href="#linear-gradient-67"></linearGradient><linearGradient id="linear-gradient-80" x1="1966.22" y1="848.48" x2="2067.86" y2="1093.16" xlink:href="#linear-gradient-22"></linearGradient><linearGradient id="linear-gradient-81" x1="2168.85" y1="1198" x2="2144.55" y2="1241.24" gradientTransform="matrix(-1, 0.02, 0.02, 1, 4119.34, -45.94)" xlink:href="#linear-gradient-10"></linearGradient><linearGradient id="linear-gradient-82" x1="1490.67" y1="1000.24" x2="1441.1" y2="1485.58" gradientTransform="matrix(-1, 0.02, 0.02, 1, 3351.67, -33.58)" xlink:href="#linear-gradient-22"></linearGradient><linearGradient id="linear-gradient-83" x1="1670.96" y1="923.23" x2="1460.93" y2="1191.94" gradientTransform="matrix(-1, 0.02, 0.02, 1, 3351.67, -33.58)" xlink:href="#linear-gradient-67"></linearGradient><linearGradient id="linear-gradient-84" x1="1698.98" y1="945.11" x2="1488.88" y2="1213.91" gradientTransform="matrix(-1, 0.02, 0.02, 1, 3351.67, -33.58)" xlink:href="#linear-gradient-67"></linearGradient><linearGradient id="linear-gradient-85" x1="2017.13" y1="1040.8" x2="1964.71" y2="1302.89" xlink:href="#linear-gradient-37"></linearGradient><linearGradient id="linear-gradient-86" x1="1920.72" y1="1021.42" x2="1868.32" y2="1283.45" xlink:href="#linear-gradient-37"></linearGradient><linearGradient id="linear-gradient-87" x1="2103.61" y1="1503" x2="2101.45" y2="1480.88" xlink:href="#linear-gradient-3"></linearGradient><linearGradient id="linear-gradient-88" x1="-6383.34" y1="2017.66" x2="-6467.25" y2="2117.36" gradientTransform="matrix(0.99, 0.15, -0.15, 0.99, 8863.58, -145.26)" xlink:href="#linear-gradient-10"></linearGradient><linearGradient id="linear-gradient-89" x1="4863.78" y1="821.86" x2="4698.99" y2="1053.1" gradientTransform="matrix(-0.99, -0.12, -0.12, 0.99, 6904.9, 630.32)" xlink:href="#linear-gradient-45"></linearGradient><linearGradient id="linear-gradient-90" x1="-6201.54" y1="1928.43" x2="-6193.81" y2="1873.58" gradientTransform="translate(8590.6 929.3) rotate(16.2)" xlink:href="#linear-gradient-67"></linearGradient><linearGradient id="linear-gradient-91" x1="-6536.09" y1="2089.3" x2="-6472.03" y2="2162.94" gradientTransform="matrix(0.99, 0.15, -0.15, 0.99, 8863.58, -145.26)" xlink:href="#linear-gradient-67"></linearGradient><linearGradient id="linear-gradient-92" x1="-6423.52" y1="1983.79" x2="-6507.31" y2="2083.36" gradientTransform="matrix(0.99, 0.15, -0.15, 0.99, 8863.58, -145.26)" xlink:href="#linear-gradient-10"></linearGradient><linearGradient id="linear-gradient-93" x1="-6520.2" y1="2075.39" x2="-6456.16" y2="2149.03" gradientTransform="matrix(0.99, 0.15, -0.15, 0.99, 8863.58, -145.26)" xlink:href="#linear-gradient-67"></linearGradient><linearGradient id="linear-gradient-94" x1="2182.35" y1="1320.67" x2="2053.31" y2="1404.05" gradientTransform="matrix(1, 0, 0, 1, 0, 0)" xlink:href="#linear-gradient-67"></linearGradient><linearGradient id="linear-gradient-95" x1="2266.11" y1="1326.71" x2="1867.68" y2="1454.11" gradientTransform="matrix(1, 0, 0, 1, 0, 0)" xlink:href="#linear-gradient-67"></linearGradient><linearGradient id="linear-gradient-96" x1="4651.53" y1="1179.34" x2="4612.52" y2="1266.31" gradientTransform="matrix(-1, -0.01, -0.01, 1, 6762.63, 51.07)" xlink:href="#linear-gradient-5"></linearGradient><linearGradient id="linear-gradient-97" x1="4652.21" y1="1135.12" x2="4526.12" y2="1416.19" gradientTransform="matrix(-1, -0.01, -0.01, 1, 6762.63, 51.07)" xlink:href="#linear-gradient-5"></linearGradient><linearGradient id="linear-gradient-98" x1="5818.31" y1="1307.66" x2="6072.28" y2="1017.15" gradientTransform="matrix(-0.99, -0.11, -0.11, 0.99, 8126.95, 519.91)" xlink:href="#linear-gradient-67"></linearGradient><linearGradient id="linear-gradient-99" x1="-406.36" y1="3168.17" x2="-408.41" y2="3147.14" gradientTransform="translate(186.7 -1033.2) rotate(-45)" xlink:href="#linear-gradient-3"></linearGradient><linearGradient id="linear-gradient-100" x1="1859.52" y1="1134.12" x2="1730.12" y2="1282.35" xlink:href="#linear-gradient-10"></linearGradient><linearGradient id="linear-gradient-101" x1="1816.75" y1="1098.53" x2="1773.45" y2="1148.14" xlink:href="#linear-gradient-10"></linearGradient><linearGradient id="linear-gradient-102" x1="1699.47" y1="1129.17" x2="1594.5" y2="1249.41" gradientTransform="matrix(1, 0, 0, 1, 0, 0)" xlink:href="#linear-gradient-5"></linearGradient><linearGradient id="linear-gradient-103" x1="2025.64" y1="1144.64" x2="1774.96" y2="1431.81" gradientTransform="matrix(1, 0, 0, 1, 0, 0)" xlink:href="#linear-gradient-5"></linearGradient><linearGradient id="linear-gradient-104" x1="1598.89" y1="1334.92" x2="1571.02" y2="1366.83" xlink:href="#linear-gradient-10"></linearGradient><linearGradient id="linear-gradient-105" x1="1681.3" y1="1334.92" x2="1653.44" y2="1366.83" xlink:href="#linear-gradient-10"></linearGradient><linearGradient id="linear-gradient-106" x1="1112.04" y1="222.9" x2="970.97" y2="1811.05" xlink:href="#linear-gradient-22"></linearGradient><linearGradient id="linear-gradient-107" x1="896" y1="83.01" x2="754.96" y2="1670.78" xlink:href="#linear-gradient-22"></linearGradient><linearGradient id="linear-gradient-108" x1="1024.08" y1="318.37" x2="1032.13" y2="696.7" xlink:href="#linear-gradient-22"></linearGradient><linearGradient id="linear-gradient-109" x1="732.11" y1="806.3" x2="701.9" y2="1207.05" xlink:href="#linear-gradient-22"></linearGradient><linearGradient id="linear-gradient-110" x1="1097.14" y1="833.93" x2="1066.93" y2="1234.68" xlink:href="#linear-gradient-22"></linearGradient><linearGradient id="linear-gradient-111" x1="884" y1="1284.26" x2="885.7" y2="1317.99" xlink:href="#linear-gradient-10"></linearGradient><linearGradient id="linear-gradient-112" x1="947.25" y1="49.57" x2="835.4" y2="451.65" xlink:href="#linear-gradient-22"></linearGradient><linearGradient id="linear-gradient-113" x1="1016.32" y1="319.06" x2="1031.86" y2="628.06" gradientTransform="matrix(1, 0, 0, 1, 0, 0)" xlink:href="#linear-gradient-45"></linearGradient><linearGradient id="linear-gradient-114" x1="1296.31" y1="1552.96" x2="1277.66" y2="570.76" gradientUnits="userSpaceOnUse"><stop offset="0" stop-color="#233894"></stop><stop offset="1" stop-color="#dd397a"></stop></linearGradient><linearGradient id="linear-gradient-115" x1="1296.52" y1="610.25" x2="1278.37" y2="1078.89" gradientTransform="matrix(1, 0, 0, 1, 0, 0)" xlink:href="#linear-gradient-45"></linearGradient><linearGradient id="linear-gradient-116" x1="1578.2" y1="1087.27" x2="1416.33" y2="1497.58" xlink:href="#linear-gradient-22"></linearGradient><linearGradient id="linear-gradient-117" x1="1621.91" y1="1357.49" x2="1390.41" y2="1502.41" xlink:href="#linear-gradient-22"></linearGradient><linearGradient id="linear-gradient-118" x1="1315.4" y1="708.36" x2="1304.11" y2="1275.89" xlink:href="#linear-gradient-114"></linearGradient><linearGradient id="linear-gradient-119" x1="1387.64" y1="709.8" x2="1376.34" y2="1277.33" xlink:href="#linear-gradient-114"></linearGradient><linearGradient id="linear-gradient-120" x1="1451.19" y1="711.07" x2="1439.9" y2="1278.59" xlink:href="#linear-gradient-114"></linearGradient><linearGradient id="linear-gradient-121" x1="1502.12" y1="712.08" x2="1490.82" y2="1279.61" xlink:href="#linear-gradient-114"></linearGradient><linearGradient id="linear-gradient-122" x1="1557.55" y1="713.18" x2="1546.26" y2="1280.71" xlink:href="#linear-gradient-114"></linearGradient><linearGradient id="linear-gradient-123" x1="1610.18" y1="714.23" x2="1598.89" y2="1281.76" xlink:href="#linear-gradient-114"></linearGradient></defs><title>hostel</title><path class="cls-1" d="M200.1,745.6c57.1-77.1,178-118.4,181.1-233.9,2-75-33.2-115.7,23.2-179.7,136.2-154.9,346-173,525.2-108.3s322.3,194.2,521.5,186.4c108.4-4.2,209.2-54,316.6-63.4,33-2.8,63.9-.4,92.8,6.8,108.4,26.8,204,127.7,240,239.7,29.2,90.8-8.1,180.4,37.8,269.3,48.8,94.8,145.1,160.6,169.3,270,29.1,131.4-82.1,245.6-201.5,249.1-76,2.3-216.9-9.4-281.5-54.8-78.6-55.3-155.9-58.9-247.6-56.8-174.4,4-348.9,42-521.1,69.1-147.6,23.1-293,57.5-442.6,61.8-109.8,3.2-203,4.7-262.4-110.8C279.9,1152.2,80.5,907.2,200.1,745.6Z" transform="translate(-162.7 -135)"></path><path class="cls-2" d="M278.2,786.8c51.8-71.2,161.6-109.3,164.5-216,1.8-69.4-30.2-107,21-166.2,123.6-143,314.2-159.8,476.9-100s292.6,179.5,473.5,172.3c98.5-4,189.9-50,287.4-58.6a251.5,251.5,0,0,1,84.4,6.2c98.3,24.8,185.2,118,217.9,221.5,26.5,83.9-7.4,166.7,34.2,248.9,44.4,87.5,131.8,148.3,153.8,249.4,26.4,121.4-74.5,226.9-183,230.2-69,2.1-1219.6,13.8-1355.4,17.8-99.7,2.9-184.3,4.3-238.3-102.4C350.6,1162.5,169.6,936.2,278.2,786.8Z" transform="translate(-162.7 -135)"></path><g class="cls-3"><path class="cls-4" d="M1667.4,1096.1a49.1,49.1,0,0,1,21.4-42.8c35.9-24.1,68.8-57.2,95-98,51.7-80.2,65.6-171.4,44.6-244.7a49.2,49.2,0,0,1,14.7-50.8c38.2-33.6,74.7-79.9,103.9-135.3,74.8-142.2,73.4-290.2-3.2-330.6s-199.5,42.2-274.4,184.4c-29.8,56.5-47.5,113.9-53.2,165.2a49.8,49.8,0,0,1-34.3,41.9c-62.6,20.1-123.2,66.2-166.2,132.9a358.7,358.7,0,0,0-30,57.5,48.9,48.9,0,0,1-41.4,30.3c-96.3,8.1-189.7,61.2-247.8,151.5-96.8,150.4-59.4,346.8,83.5,438.8s337.2,44.7,433.9-105.6C1653,1230.1,1670.2,1161.9,1667.4,1096.1Z" transform="translate(-162.7 -135)"></path><path class="cls-5" d="M1877.3,362.7c-7.2,22.4-15.5,44.3-24.2,66.2s-17.8,43.4-27.4,64.8q-28.8,64.2-62.3,126.2c-22.2,41.4-46.1,81.8-71.3,121.4-3.2,5-6.2,10-9.5,14.9l-9.7,14.7c-6.5,9.7-12.9,19.6-19.7,29.2l-10,14.4c-3.4,4.8-6.6,9.7-10.1,14.4l-20.8,28.5c-3.4,4.8-7,9.4-10.6,14l-10.7,14c-3.6,4.7-7.1,9.4-10.8,13.9L1569.1,913l-11,13.7-5.6,6.8c-1.8,2.3-3.8,4.5-5.7,6.8L1523.9,967c-3.7,4.5-7.7,8.8-11.7,13.2l-11.8,13.1-11.8,13c-3.9,4.4-8,8.6-12.1,12.8l-24.3,25.5-25.2,24.6c-4.2,4.1-8.3,8.3-12.6,12.3l-12.9,11.9-13,12-6.5,5.9-3.2,3-3.3,2.9-26.7,23-6.6,5.8-3.3,2.9-3.5,2.7-13.7,11.1-13.7,11-6.8,5.6-7,5.4-28.2,21.1c-4.7,3.4-9.3,7-14.1,10.4l-14.5,10.1-28.9,19.9a1.7,1.7,0,0,1-2.5-.4,1.8,1.8,0,0,1,.4-2.5h.1l28.4-20.5,14.3-10.2c4.7-3.5,9.3-7.2,13.9-10.7l27.8-21.4c2.4-1.8,4.6-3.7,6.9-5.5l6.7-5.6,13.5-11.2,13.6-11.1,3.4-2.8,3.3-2.9,6.5-5.8,26.4-23.2,3.2-2.9,3.2-3,6.4-6,12.8-12,12.8-12c4.3-4,8.3-8.2,12.5-12.3l24.8-24.8,24.2-25.4c4-4.3,8.1-8.4,12-12.7l11.7-13.1,11.8-13.1c3.8-4.3,7.8-8.6,11.6-13.1,30.6-35.3,59.6-72,87.8-109.3a2047.2,2047.2,0,0,0,151.4-236c22.6-41,43.6-82.9,63.2-125.3,9.8-21.2,19.2-42.7,28.2-64.3l6.6-16.3c2.2-5.4,4.3-10.8,6.4-16.3,4.2-10.9,8.3-21.9,12.1-32.9h0a1.8,1.8,0,0,1,3.4,1.1Z" transform="translate(-162.7 -135)"></path></g><g class="cls-6"><path class="cls-7" d="M2124,1030.7c26.9-52.6,31.8-109.6,17.7-157a24.9,24.9,0,0,1,7.7-26.1c20.5-17.3,39.8-41.9,56.2-74,46.6-91.4,51.3-208.3-2.5-235.7s-145.7,45-192.3,136.4c-14.3,28-22.7,54.5-25.9,78.7a25.1,25.1,0,0,1-18.8,21c-51.2,13.9-99.8,53.2-129,110.4a233,233,0,0,0-21.3,61.3c-2.4,12.3-13.3,20.8-26.3,20.5-78.9-2.2-154.1,37.7-190.9,109.3-52.1,101.6-5.1,231.4,103.2,284.9s234.4,14.8,285.8-86a197,197,0,0,0,19.6-116.8,25,25,0,0,1,14.6-26.2C2062.8,1112.8,2100,1077.9,2124,1030.7Z" transform="translate(-162.7 -135)"></path><path class="cls-5" d="M2153,648c-4.4,16-9.7,31.7-15.2,47.4s-11.5,31.1-17.7,46.6c-12.4,30.7-25.9,61.1-40.6,90.9a1300.4,1300.4,0,0,1-101.2,171.8c-18.9,27.5-39.5,53.8-60.8,79.4a967.5,967.5,0,0,1-68.5,73.3c-6.1,5.7-12.1,11.5-18.3,17.2l-18.9,16.6c-6.2,5.6-12.9,10.8-19.4,16l-9.8,7.9-4.9,4-5.1,3.7-20.4,14.8c-3.4,2.5-7,4.8-10.5,7.1l-10.5,7-10.6,6.8c-3.5,2.3-7.2,4.4-10.8,6.5l-21.9,12.7-.9-1.3,20.6-14.4c3.4-2.4,6.9-4.6,10.3-7.2l9.9-7.5,10-7.6c3.3-2.5,6.7-4.9,9.9-7.6l19.3-15.8,4.8-3.9,4.7-4.2,9.3-8.2c6.2-5.5,12.5-10.9,18.4-16.7l18.1-17c5.9-5.8,11.6-11.8,17.5-17.7,2.9-2.9,5.8-5.8,8.6-8.8l8.5-9.1,8.4-9.1c2.8-3,5.7-6,8.3-9.1l16.3-18.7c2.8-3,5.3-6.3,8-9.5l7.8-9.5,7.9-9.5,7.7-9.7c5-6.6,10.2-13,15.2-19.6l14.7-19.8c4.9-6.7,9.6-13.4,14.4-20.1q28.5-40.5,54.1-82.8c17.2-28.1,33.4-56.8,48.9-85.9s30.2-58.7,44.1-88.7c3.5-7.5,6.8-15,10.3-22.6l9.9-22.7,4.8-11.4,4.8-11.5c3.1-7.6,6.1-15.3,9.1-23Z" transform="translate(-162.7 -135)"></path></g><path class="cls-8" d="M519.9,1104.9c-98,42.3-258.5-82.9-270.5-201.1-4.7-46.3,15.9-66.9,4.8-132.3-13.4-79.5-50.3-88.7-53.7-151.1-3-55,20.7-138.6,82.2-162.6,57.4-22.4,125.8,15.7,154.6,62.3,30.2,49,1.5,82.7,31.5,139.1s73.1,51.7,107.7,91C652.7,836.7,621.9,1060.8,519.9,1104.9Z" transform="translate(-162.7 -135)"></path><path class="cls-9" d="M545.8,1057.3c-10.7,12.6-22.4,21.7-34.7,27.1-31.1,13.4-74.5,6-119.1-20.2C326.9,1026,277.4,959.1,271.6,901.5c-1.7-16.8.6-29.8,3.2-44.9,3.9-22.4,8.4-47.7,1.4-88.8-7.3-43.5-21.6-68.7-33.1-89s-18.9-33.5-20.3-59.6c-1.8-33.7,8.4-84.5,35.3-116.4,9.6-11.3,20.6-19.4,32.7-24.2,20.7-8.1,45.8-6.4,70.7,4.8,23.3,10.5,44.5,28.6,56.8,48.5s12.2,35.3,12.5,55.6c.4,23.1.8,49.4,18.3,82.2,20.4,38.4,46.9,53.1,70.3,66,15.3,8.5,28.5,15.8,40.4,29.3,25.9,29.4,39.5,82.8,36.4,142.7S574.3,1023.6,545.8,1057.3Z" transform="translate(-162.7 -135)"></path><path class="cls-9" d="M295.5,522.3q25.2,66.5,49.5,132.9l24.7,66.5L382,754.8c4.2,11.1,8.4,22.1,12.5,33.2s8.5,22,12.7,33l6.4,16.5L420,854l13,32.9c4.5,10.9,8.9,21.9,13.3,32.8,18,43.6,36.6,86.9,57,129.6l-2.6,1.5c-6.1-10.2-12.1-20.5-18-30.7-3.1-5.1-5.7-10.4-8.5-15.7l-8.3-15.7-4.1-7.9c-1.4-2.6-2.7-5.3-4-7.9l-7.8-16c-5.2-10.7-10.4-21.4-15.2-32.2s-9.8-21.6-14.5-32.5l-13.9-32.7c-2.2-5.5-4.6-10.9-6.8-16.4l-6.5-16.5c-4.4-11.1-8.8-22.1-13-33.1-17.2-44.2-32.7-89-47.4-134-7.4-22.5-14.4-45.1-21.2-67.8s-13.1-45.5-18.8-68.5Z" transform="translate(-162.7 -135)"></path><path class="cls-10" d="M301.1,588.2C272,573.5,249,544.3,248.8,544l1.1-.9c.3.2,23,29.3,51.9,43.8Z" transform="translate(-162.7 -135)"></path><path class="cls-10" d="M306,624c-42.3-15-68-49.3-68.2-49.6l1.2-.9c.2.3,25.6,34.3,67.5,49.1Z" transform="translate(-162.7 -135)"></path><path class="cls-10" d="M315.4,667.9c-50.7-11.1-79.4-55.3-79.7-55.7l1.3-.8c.3.4,28.6,44.1,78.8,55Z" transform="translate(-162.7 -135)"></path><path class="cls-10" d="M332.2,707c-49.3-3.4-84-45.9-84.4-46.4l1.2-.9c.3.4,34.6,42.5,83.3,45.9Z" transform="translate(-162.7 -135)"></path><path class="cls-10" d="M345.2,742.6c-31.9,0-64.6-22.5-64.9-22.7l.8-1.3c.3.3,32.7,22.5,64.1,22.5Z" transform="translate(-162.7 -135)"></path><path class="cls-10" d="M357.6,785c-44.4-.4-66.4-18.8-66.7-19l1-1.1c.2.1,21.9,18.2,65.8,18.6Z" transform="translate(-162.7 -135)"></path><path class="cls-10" d="M380,835.4c-46,3.4-85.2-33.1-85.5-33.5l1-1.1c.4.4,39,36.4,84.4,33.1Z" transform="translate(-162.7 -135)"></path><path class="cls-10" d="M394.6,886.3c-55.7,5.3-98.5-38.9-98.9-39.3l1-1c.5.4,42.8,44.1,97.8,38.8Z" transform="translate(-162.7 -135)"></path><path class="cls-10" d="M419.3,939.8c-83.8-.6-129.6-53.6-130.1-54.2l1.2-.9c.4.5,45.8,53,128.9,53.6Z" transform="translate(-162.7 -135)"></path><path class="cls-10" d="M442.6,1002.4c-86.5,9-144.6-68.4-145.1-69.2l1.2-.8c.5.7,58.1,77.4,143.7,68.5Z" transform="translate(-162.7 -135)"></path><path class="cls-10" d="M467.4,1059.4c-45,6.2-83.3-15-107.5-33.7A229.6,229.6,0,0,1,317.6,983l1.3-.8c.6.9,63.2,87.3,148.3,75.8Z" transform="translate(-162.7 -135)"></path><path class="cls-11" d="M172.5,800c26.6-19.8,137.6,45.7,186.5,138,19.4,36.6,20.6,61.5,51.7,95,50.5,54.5,112.6,58.9,110.7,69.4-2.3,13.4-106.7,31.2-195.7-15.2C191.1,1017.1,139.2,824.8,172.5,800Z" transform="translate(-162.7 -135)"></path><path class="cls-12" d="M211.3,842.9s61.8,215.6,253.2,254.9C464.5,1097.8,298.1,1071.9,211.3,842.9Z" transform="translate(-162.7 -135)"></path><path class="cls-13" d="M1510.8,768.6a49.8,49.8,0,0,1-35.3-14.5,50.7,50.7,0,0,1-15.1-36.4l.2-32.7a33.3,33.3,0,0,0-32.6-33.4l-175.7-2.8.2-12.1,175.7,2.8a45.4,45.4,0,0,1,44.4,45.5v32.8a38.4,38.4,0,0,0,39.2,38.7l288.3-6.6.2,12.1L1512,768.6Z" transform="translate(-162.7 -135)"></path><path class="cls-14" d="M1551.7,655.6a56.1,56.1,0,0,1-38.5-15.5,56.7,56.7,0,0,1-17.2-41.5,29.4,29.4,0,0,0-29.8-30.1l-279.3,3.7V560.1l279.2-3.7h.6a41.7,41.7,0,0,1,41.5,42.5,43.7,43.7,0,0,0,46.3,44.5l152.3-9.6a36.7,36.7,0,0,0,34.1-38.4l-2-43.1c-1.3-27.8,20.1-51.8,47.6-53.6l165.3-10.6.8,12-165.3,10.7a39.3,39.3,0,0,0-36.4,40.9l2.1,43.2c1.2,26.4-19.2,49.3-45.5,50.9l-152.2,9.7Z" transform="translate(-162.7 -135)"></path><ellipse class="cls-15" cx="1792.3" cy="317.7" rx="131.3" ry="132"></ellipse><ellipse class="cls-16" cx="1792.9" cy="317.4" rx="117.2" ry="117.8"></ellipse><path class="cls-17" d="M2049.6,502.1a3.4,3.4,0,0,1-3.4,3.4H1862.9a3.5,3.5,0,0,1-3.4-3.4L1858,396.2a6,6,0,0,1,6.2-5.3l179.1-4.6a8.3,8.3,0,0,1,6.3,2.5,8.1,8.1,0,0,1,2.5,6.3Z" transform="translate(-162.7 -135)"></path><path class="cls-18" d="M2046.2,498.8a3.2,3.2,0,0,1-3.2,3.2H1867.3a3.2,3.2,0,0,1-3.2-3.2l-1.4-96.1a8,8,0,0,1,8.3-7.8l171.6-4.6a6.1,6.1,0,0,1,6.2,6.2Z" transform="translate(-162.7 -135)"></path><path class="cls-10" d="M1866,453a.5.5,0,0,1-.3-.3v-7.8a.3.3,0,0,1,.3-.3c.2-.1.3.1.3.3v7.8a.3.3,0,0,1-.3.3Z" transform="translate(-162.7 -135)"></path><path class="cls-10" d="M1865.8,433.9a.3.3,0,0,1-.3-.3l-.5-29.9a6.2,6.2,0,0,1,1.9-4.8c2.1-2.1,5.6-2,5.7-2l54.8-1.4c.2-.1.3.1.3.3a.3.3,0,0,1-.3.3l-54.8,1.4a7.9,7.9,0,0,0-5.3,1.9,5.6,5.6,0,0,0-1.7,4.3l.5,29.9a.5.5,0,0,1-.3.3Z" transform="translate(-162.7 -135)"></path><path class="cls-19" d="M1871.9,493.5c.2-8,.1-78.3-.4-84.4s9-7.2,23.5-7.9,136.3-3.4,139.5-3.6c7-.6,8.5,10,7.8,33-.6,17.3-1.4,45.8-1.8,58.9a7.3,7.3,0,0,1-7.2,7c-29.3.1-141.8.4-149.3.6S1871.8,496.6,1871.9,493.5Z" transform="translate(-162.7 -135)"></path><path class="cls-20" d="M2059.8,514.2H1853a4.6,4.6,0,0,1-4.6-4.6h0a4.7,4.7,0,0,1,4.6-4.7h206.8a4.7,4.7,0,0,1,4.7,4.7h0A4.6,4.6,0,0,1,2059.8,514.2Z" transform="translate(-162.7 -135)"></path><g class="cls-21"><path class="cls-10" d="M1938.1,459.2h-6.2l-2.6-14a53.7,53.7,0,0,1-.8-6.7v1.3l-.8,5.5-2.5,13.9h-6.2l-4.8-26.6h4.9l2.3,15c.3,1.5.6,3.8,1,7.1.3-3.3.6-5.6.8-7l2.8-15.1h5.1l2.9,15.1c.3,2.2.6,4.6.9,7,.4-3.6.7-6,.9-7.1l2.3-15h4.9Z" transform="translate(-162.7 -135)"></path><path class="cls-10" d="M1946.4,459.2V432.6h4.6v26.6Z" transform="translate(-162.7 -135)"></path><path class="cls-10" d="M1955.6,451.3v-4.2h9.1v4.2Z" transform="translate(-162.7 -135)"></path><path class="cls-10" d="M1973.3,459.2h-4.9V432.6h11.8v4.2h-6.9v7.4h6.5v4.3h-6.5Z" transform="translate(-162.7 -135)"></path><path class="cls-10" d="M1984.4,459.2V432.6h4.7v26.6Z" transform="translate(-162.7 -135)"></path></g><ellipse class="cls-22" cx="1661" cy="629.9" rx="131.3" ry="132"></ellipse><ellipse class="cls-16" cx="1661.6" cy="629.5" rx="117.2" ry="117.8"></ellipse><path class="cls-23" d="M1570.4,561.1h60a10.5,10.5,0,0,1,10.5,10.5v1.8a0,0,0,0,1,0,0h-70.5a0,0,0,0,1,0,0V561.1A0,0,0,0,1,1570.4,561.1Z"></path><rect class="cls-24" x="1567.9" y="570.3" width="188" height="38.74"></rect><rect class="cls-25" x="1646.8" y="570.3" width="109.1" height="38.74"></rect><rect class="cls-26" x="1659.6" y="570.3" width="90.5" height="38.74"></rect><path class="cls-27" d="M1570.4,645.3h60a10.5,10.5,0,0,1,10.5,10.5v1.8a0,0,0,0,1,0,0h-70.5a0,0,0,0,1,0,0V645.3A0,0,0,0,1,1570.4,645.3Z"></path><rect class="cls-28" x="1567.9" y="654.5" width="188" height="38.74"></rect><rect class="cls-29" x="1646.8" y="654.5" width="109.1" height="38.74"></rect><rect class="cls-30" x="1659.6" y="654.5" width="90.5" height="38.74"></rect><path class="cls-31" d="M1733.1,830.6h0a3.4,3.4,0,0,1-3.4-3.4V686.7a3.4,3.4,0,0,1,3.4-3.4h0a3.4,3.4,0,0,1,3.4,3.4V827.2A3.4,3.4,0,0,1,1733.1,830.6Z" transform="translate(-162.7 -135)"></path><path class="cls-32" d="M1915.8,830.6h0a3.4,3.4,0,0,1-3.4-3.4V686.7a3.4,3.4,0,0,1,3.4-3.4h0a3.4,3.4,0,0,1,3.4,3.4V827.2A3.4,3.4,0,0,1,1915.8,830.6Z" transform="translate(-162.7 -135)"></path><rect class="cls-33" x="1701.3" y="577.1" width="23.8" height="2.64"></rect><rect class="cls-34" x="1701.5" y="591.4" width="23.8" height="2.64"></rect><rect class="cls-35" x="1702.9" y="606.4" width="23.8" height="2.64"></rect><rect class="cls-36" x="1702" y="621.3" width="23.8" height="2.64"></rect><rect class="cls-37" x="1702.2" y="635.7" width="23.8" height="2.64"></rect><rect class="cls-38" x="1703.6" y="650.7" width="23.8" height="2.64"></rect><rect class="cls-39" x="1702.4" y="664.2" width="23.8" height="2.64"></rect><rect class="cls-40" x="1703.8" y="680.1" width="23.8" height="2.64"></rect><path class="cls-41" d="M1865.1,830.6h0a2.5,2.5,0,0,1-2.5-2.5V704.7a2.5,2.5,0,0,1,2.5-2.5h0a2.5,2.5,0,0,1,2.5,2.5V828.1A2.5,2.5,0,0,1,1865.1,830.6Z" transform="translate(-162.7 -135)"></path><path class="cls-42" d="M1887.8,830.6h0a2.5,2.5,0,0,1-2.4-2.5V704.7a2.5,2.5,0,0,1,2.4-2.5h0a2.5,2.5,0,0,1,2.5,2.5V828.1A2.5,2.5,0,0,1,1887.8,830.6Z" transform="translate(-162.7 -135)"></path><path class="cls-43" d="M1433.9,505H1188.6V492.9h245.3a29.5,29.5,0,0,0,21.8-9.5,29.9,29.9,0,0,0,8-22.4l-4.1-66.2a52.2,52.2,0,0,1,49.8-55.7l124.2-5.6.5,12.1-124.2,5.6a39.5,39.5,0,0,0-28.1,13.3,40,40,0,0,0-10.2,29.5l4.1,66.2a41.9,41.9,0,0,1-41.8,44.8Z" transform="translate(-162.7 -135)"></path><ellipse class="cls-44" cx="1508.7" cy="132" rx="131.3" ry="132"></ellipse><ellipse class="cls-16" cx="1509.3" cy="131.7" rx="117.2" ry="117.8"></ellipse><path class="cls-45" d="M1654.6,187.2h-2.1a12,12,0,0,0-12,12v33.1h14.1V204.4a4.8,4.8,0,0,1,4.8-4.9h35.3a5.8,5.8,0,0,1,5.7,5.7l.2,175.8a61.2,61.2,0,0,0,15.3-5.1V200.6a13.3,13.3,0,0,0-13.3-13.4Z" transform="translate(-162.7 -135)"></path><path class="cls-46" d="M1640.5,224.9l-23.9,22.4a1.5,1.5,0,0,0,1.1,2.6l57.6-1.2a1.3,1.3,0,0,0,.9-2.2l-21.6-21.9Z" transform="translate(-162.7 -135)"></path><path class="cls-47" d="M1630.5,254.6l-5.9,10.9a4.5,4.5,0,0,0,0,4.2c2.6,4.5,8.7,4.8,12.3.4a4.5,4.5,0,0,0,.5-5.1l-5.7-10.4A.7.7,0,0,0,1630.5,254.6Z" transform="translate(-162.7 -135)"></path><path class="cls-48" d="M1643.9,291.5l-8.4,15.5a5.9,5.9,0,0,0,0,6c3.6,6.4,12.4,6.8,17.4.6a6.5,6.5,0,0,0,.7-7.3l-8-14.8A.9.9,0,0,0,1643.9,291.5Z" transform="translate(-162.7 -135)"></path><path class="cls-49" d="M1662.5,259l-8.4,15.5a5.9,5.9,0,0,0,0,6c3.6,6.4,12.4,6.7,17.4.6a6.7,6.7,0,0,0,.7-7.4l-8-14.7A.9.9,0,0,0,1662.5,259Z" transform="translate(-162.7 -135)"></path><path class="cls-50" d="M1664.9,329.1l-6.4,11.9a4.7,4.7,0,0,0,0,4.6c2.8,4.9,9.5,5.2,13.4.5a5.2,5.2,0,0,0,.5-5.7l-6.2-11.3A.7.7,0,0,0,1664.9,329.1Z" transform="translate(-162.7 -135)"></path><path class="cls-51" d="M1632.5,349.8l-6.5,11.9a4.7,4.7,0,0,0,.1,4.6c2.8,4.9,9.4,5.2,13.3.5a5,5,0,0,0,.5-5.6l-6.1-11.4A.8.8,0,0,0,1632.5,349.8Z" transform="translate(-162.7 -135)"></path><path class="cls-52" d="M2165.8,736.4a1.4,1.4,0,0,1-1.4-.2c-1.4-1.2-3-2.4-4.5-3.5a1.4,1.4,0,0,1-.4-2,1.4,1.4,0,0,1,2-.4l4.8,3.6a1.5,1.5,0,0,1,.2,2.1Z" transform="translate(-162.7 -135)"></path><path class="cls-52" d="M2155.3,841.4a1.6,1.6,0,0,1-1.8-.7,1.5,1.5,0,0,1,.6-2,55.1,55.1,0,0,0,7.3-4.5l2.4-1.8a1.4,1.4,0,0,1,2,.2,1.6,1.6,0,0,1-.2,2.1l-2.5,1.9a86.5,86.5,0,0,1-7.6,4.7C2155.4,841.3,2155.3,841.3,2155.3,841.4Zm22.9-20.6a1.2,1.2,0,0,1-1.3-.2,1.4,1.4,0,0,1-.4-2,65.9,65.9,0,0,0,5.5-10.1,1.4,1.4,0,0,1,1.9-.8,1.5,1.5,0,0,1,.8,1.9,73.8,73.8,0,0,1-5.8,10.7Zm10.4-29h-.6a1.5,1.5,0,0,1-1.3-1.6,64.3,64.3,0,0,0,.1-11.6,1.5,1.5,0,0,1,2.9-.3,71,71,0,0,1-.1,12.2A1.5,1.5,0,0,1,2188.6,791.8Zm-4.4-30.6a1.5,1.5,0,0,1-1.9-.8,58.6,58.6,0,0,0-5.4-10.2,1.7,1.7,0,0,1,.4-2.1,1.6,1.6,0,0,1,2.1.5,64.2,64.2,0,0,1,5.6,10.7,1.4,1.4,0,0,1-.8,1.9Z" transform="translate(-162.7 -135)"></path><path class="cls-52" d="M2137.1,847.6h-.2l-5.9.8a1.6,1.6,0,0,1-1.6-1.4,1.5,1.5,0,0,1,1.3-1.6,55.4,55.4,0,0,0,5.7-.7,1.5,1.5,0,0,1,1.7,1.2A1.4,1.4,0,0,1,2137.1,847.6Z" transform="translate(-162.7 -135)"></path><path class="cls-52" d="M2086.5,834.5a1.4,1.4,0,0,1-1.4-.2c-1.5-1.2-3-2.6-4.5-4a1.4,1.4,0,0,1,0-2,1.5,1.5,0,0,1,2.1-.1,37.9,37.9,0,0,0,4.2,3.8,1.6,1.6,0,0,1,.2,2.1A.8.8,0,0,1,2086.5,834.5Z" transform="translate(-162.7 -135)"></path><path class="cls-52" d="M2070.7,815.6a1.5,1.5,0,0,1-1.7-.7,73.1,73.1,0,0,1-4.3-9.5,8.8,8.8,0,0,0-.5-1.5,1.6,1.6,0,0,1,1-1.8,1.4,1.4,0,0,1,1.8.9l.5,1.4a61.3,61.3,0,0,0,4,9.1,1.5,1.5,0,0,1-.6,2Zm-7.7-29.4h-.4a1.5,1.5,0,0,1-1.5-1.5,60.2,60.2,0,0,1,.9-11.9,1.5,1.5,0,0,1,1.7-1.2,1.5,1.5,0,0,1,1.2,1.7,54.8,54.8,0,0,0-.9,11.4A1.5,1.5,0,0,1,2063,786.2Zm6.8-29.6a1.5,1.5,0,0,1-1.8-2,61.2,61.2,0,0,1,6.3-10.1,1.5,1.5,0,0,1,2.1-.3,1.7,1.7,0,0,1,.3,2.1,60,60,0,0,0-6.1,9.6A1.3,1.3,0,0,1,2069.8,756.6Zm19.7-22.9a1.3,1.3,0,0,1-1.6-.6,1.4,1.4,0,0,1,.3-2,70.9,70.9,0,0,1,10.3-6,1.4,1.4,0,0,1,1.9.7,1.5,1.5,0,0,1-.7,2,64.1,64.1,0,0,0-9.8,5.7Z" transform="translate(-162.7 -135)"></path><path class="cls-52" d="M2123.5,722.1h-.4a36.6,36.6,0,0,0-5.7.5,1.5,1.5,0,0,1-1.6-1.3,1.5,1.5,0,0,1,1.2-1.7c2-.2,4-.4,6-.4a1.4,1.4,0,0,1,1.5,1.4A1.5,1.5,0,0,1,2123.5,722.1Z" transform="translate(-162.7 -135)"></path><path class="cls-53" d="M2129.7,735.5a.9.9,0,0,0-.8.4l-4.6,8a39.8,39.8,0,0,0-12.7,2.5l-7.4-5.6a.6.6,0,0,0-.8,0l-9.2,6.2a.7.7,0,0,0-.3.8l2.3,8.9a40.1,40.1,0,0,0-7.1,10.9l-9.2,1.2a.9.9,0,0,0-.6.6l-2.1,10.9a.8.8,0,0,0,.3.8l8,4.7a41.1,41.1,0,0,0,2.6,12.8l-5.6,7.3a.8.8,0,0,0,0,.9l6.1,9.2a.8.8,0,0,0,.9.3l8.8-2.3a42.4,42.4,0,0,0,10.8,7.2l1.3,9.2c.1.3.3.6.6.6l10.8,2.2c.4,0,.7-.1.8-.4l4.7-8a40.9,40.9,0,0,0,12.7-2.5l7.3,5.6a.8.8,0,0,0,.9,0l9.1-6.2a.9.9,0,0,0,.4-.8l-2.4-8.9a41.3,41.3,0,0,0,7.2-10.9l9.1-1.2c.3-.1.6-.3.6-.6l2.2-10.9c0-.3-.1-.7-.4-.8l-8-4.7a41,41,0,0,0-2.5-12.8l5.5-7.3a1,1,0,0,0,.1-.9l-6.2-9.2a.7.7,0,0,0-.8-.3l-8.9,2.3a40.8,40.8,0,0,0-10.8-7.2l-1.3-9.2c0-.3-.3-.5-.6-.6Z" transform="translate(-162.7 -135)"></path><path class="cls-10" d="M2129.8,795.7a12,12,0,0,1-12.9-19.4h0a12,12,0,0,1,16.9-.9,12.1,12.1,0,0,1,.9,17A11.2,11.2,0,0,1,2129.8,795.7Zm-9.7-16.5a7.7,7.7,0,0,0,.6,10.8,7.5,7.5,0,0,0,10.7-.5,7.6,7.6,0,1,0-11.3-10.3Z" transform="translate(-162.7 -135)"></path><path class="cls-10" d="M2135.3,811.9a28.7,28.7,0,0,1-33.5-11.2,33.5,33.5,0,0,1-3.2-6.6,29,29,0,0,1,11.1-33.6,27.7,27.7,0,0,1,5.4-2.8l1.6,4a29.4,29.4,0,0,0-4.6,2.5,24.7,24.7,0,0,0-10.2,14.8v.2a1.3,1.3,0,0,0-.1.6,23.5,23.5,0,0,0,.9,12.9,23.8,23.8,0,0,0,2.8,5.5,24.1,24.1,0,0,0,15.5,10.5,25,25,0,0,0,18.4-3.7,24.7,24.7,0,0,0,9.4-28.5,26.6,26.6,0,0,0-2.8-5.6,24.4,24.4,0,0,0-9.8-8.5l1.8-4a30,30,0,0,1,11.7,10.1,35.6,35.6,0,0,1,3.2,6.5,29.1,29.1,0,0,1,1.1,15.2,29.1,29.1,0,0,1-18.7,21.7Z" transform="translate(-162.7 -135)"></path><path class="cls-52" d="M2237,830.7a1,1,0,0,1-1-.2l-3.5-2.6a1.1,1.1,0,0,1-.3-1.5,1,1,0,0,1,1.5-.3,31.8,31.8,0,0,1,3.7,2.7,1.1,1.1,0,0,1,.1,1.5A1,1,0,0,1,2237,830.7Z" transform="translate(-162.7 -135)"></path><path class="cls-52" d="M2229,910a1.2,1.2,0,0,1-1.3-.6,1.1,1.1,0,0,1,.5-1.5,37.7,37.7,0,0,0,5.4-3.4l1.9-1.3a1.1,1.1,0,0,1,1.3,1.7,13.3,13.3,0,0,1-1.9,1.4,34.1,34.1,0,0,1-5.7,3.6Zm17.3-15.6a.9.9,0,0,1-1-.1,1,1,0,0,1-.2-1.5,43.7,43.7,0,0,0,4.1-7.7,1.2,1.2,0,0,1,1.5-.6,1.1,1.1,0,0,1,.5,1.5,47.3,47.3,0,0,1-4.3,8C2246.7,894.2,2246.5,894.4,2246.3,894.4Zm7.9-21.9h-.5a1,1,0,0,1-.9-1.2,51.7,51.7,0,0,0,0-8.8,1.2,1.2,0,0,1,1-1.2,1.1,1.1,0,0,1,1.2,1,40.4,40.4,0,0,1-.1,9.2A1,1,0,0,1,2254.2,872.5Zm-3.3-23.1a1,1,0,0,1-1.4-.6,43.7,43.7,0,0,0-4.1-7.7,1.2,1.2,0,0,1,.3-1.6,1.1,1.1,0,0,1,1.5.4,48.3,48.3,0,0,1,4.3,8.1,1.1,1.1,0,0,1-.6,1.4Z" transform="translate(-162.7 -135)"></path><path class="cls-52" d="M2215.3,914.7h-.1a34.7,34.7,0,0,1-4.5.6,1.1,1.1,0,0,1-1.2-1,1.2,1.2,0,0,1,1-1.2l4.3-.5a1,1,0,0,1,1.2.9A1.1,1.1,0,0,1,2215.3,914.7Z" transform="translate(-162.7 -135)"></path><path class="cls-52" d="M2177.1,904.8a1.1,1.1,0,0,1-1.1-.2,30.8,30.8,0,0,1-3.3-3,1,1,0,0,1-.1-1.5,1.1,1.1,0,0,1,1.6-.1l3.2,2.9a1.1,1.1,0,0,1,.2,1.6Z" transform="translate(-162.7 -135)"></path><path class="cls-52" d="M2165.2,890.5a1.1,1.1,0,0,1-1.4-.5,65.8,65.8,0,0,1-3.2-7.2l-.3-1.1a1.1,1.1,0,1,1,2.1-.7l.3,1a42.8,42.8,0,0,0,3.1,6.9,1.1,1.1,0,0,1-.5,1.5Zm-5.8-22.2h-.4a1.1,1.1,0,0,1-1.1-1.1,44.9,44.9,0,0,1,.7-9,1,1,0,0,1,1.2-.9,1.1,1.1,0,0,1,.9,1.3,48.6,48.6,0,0,0-.6,8.5A1.2,1.2,0,0,1,2159.4,868.3Zm5.1-22.4a1.4,1.4,0,0,1-.9,0,1.3,1.3,0,0,1-.5-1.5,54.1,54.1,0,0,1,4.8-7.6,1,1,0,0,1,1.5-.2,1.1,1.1,0,0,1,.3,1.5,42.7,42.7,0,0,0-4.6,7.3A.7.7,0,0,1,2164.5,845.9Zm14.9-17.3a1.1,1.1,0,0,1-1-1.9,39.7,39.7,0,0,1,7.7-4.5,1.1,1.1,0,0,1,1.5.5,1.2,1.2,0,0,1-.5,1.5,42,42,0,0,0-7.4,4.3Z" transform="translate(-162.7 -135)"></path><path class="cls-52" d="M2205,819.9h-.3l-4.3.4a1.1,1.1,0,0,1-1.2-1,1,1,0,0,1,1-1.2l4.4-.4a1.2,1.2,0,0,1,1.2,1.1A1.2,1.2,0,0,1,2205,819.9Z" transform="translate(-162.7 -135)"></path><path class="cls-54" d="M2209.7,830a.7.7,0,0,0-.6.3l-3.5,6a32.1,32.1,0,0,0-9.6,1.9l-5.5-4.2a.9.9,0,0,0-.7,0l-6.9,4.7a.5.5,0,0,0-.2.6l1.7,6.7a36.3,36.3,0,0,0-5.4,8.2l-6.9,1a.4.4,0,0,0-.4.4l-1.6,8.2a.6.6,0,0,0,.2.7l6,3.5a29.4,29.4,0,0,0,2,9.6l-4.2,5.6a.5.5,0,0,0,0,.7l4.6,6.9a.7.7,0,0,0,.6.3l6.7-1.8a29.1,29.1,0,0,0,8.2,5.4l1,7a.4.4,0,0,0,.4.4l8.2,1.7a.7.7,0,0,0,.6-.3l3.5-6a29.4,29.4,0,0,0,9.6-2l5.5,4.3a.9.9,0,0,0,.7,0l6.9-4.7a.5.5,0,0,0,.2-.6l-1.7-6.7a36.3,36.3,0,0,0,5.4-8.2l6.9-1a.4.4,0,0,0,.4-.4l1.7-8.3a.9.9,0,0,0-.3-.6l-6-3.5a29.4,29.4,0,0,0-2-9.6l4.2-5.6a.5.5,0,0,0,0-.7l-4.6-6.9a.7.7,0,0,0-.6-.3l-6.7,1.8a31.9,31.9,0,0,0-8.2-5.5l-.9-6.9a1.2,1.2,0,0,0-.5-.5Z" transform="translate(-162.7 -135)"></path><path class="cls-10" d="M2209.8,875.5a9.1,9.1,0,0,1-9.8-14.7h0a9.1,9.1,0,0,1,12.8-.7,9.3,9.3,0,0,1,.7,12.9A9,9,0,0,1,2209.8,875.5Zm-7.3-12.5a5.9,5.9,0,0,0,.4,8.2,5.8,5.8,0,1,0-.4-8.2Z" transform="translate(-162.7 -135)"></path><path class="cls-10" d="M2213.9,887.7a21.6,21.6,0,0,1-25.2-8.5,18.9,18.9,0,0,1-2.5-4.9,22,22,0,0,1,8.4-25.4,23.2,23.2,0,0,1,4.1-2.2l1.2,3.1a17,17,0,0,0-3.5,1.9,17.8,17.8,0,0,0-7.6,11.1.3.3,0,0,0-.1.2.9.9,0,0,1-.1.5,18.8,18.8,0,0,0,.7,9.7,16.5,16.5,0,0,0,2.1,4.2,18.4,18.4,0,0,0,25.6,5.1,18.4,18.4,0,0,0,7.8-11.8,18.7,18.7,0,0,0-.6-9.7,27.4,27.4,0,0,0-2.1-4.2,18.8,18.8,0,0,0-7.5-6.5l1.4-3a21.6,21.6,0,0,1,8.8,7.6,23.4,23.4,0,0,1,2.5,5,23.1,23.1,0,0,1,.8,11.4,21.3,21.3,0,0,1-9.2,13.9A19.5,19.5,0,0,1,2213.9,887.7Z" transform="translate(-162.7 -135)"></path><path class="cls-55" d="M862.8,792.2c-2.7,12.2-5.9,24.6-12.9,35.1-5.6,8.4-19.6,23.7-30.1,25.4-13,2.2-26.4,1.1-39.5,3.4-32.3,5.5-66.1,4.4-98.8,6.1-38.6,2.1-77.6,1.8-116.3,2.2-63.6.5-127.2-.7-190.8.8-14.5.3-26.4-1.7-36.3-5.5a62.1,62.1,0,0,1-33.8-30.6c-6.5-12.8-9.2-27.3-10-40.3a157.5,157.5,0,0,1,2.3-37.3c1-4.8,4-8.7,8.4-11.9,21.1-15.5,74.5-14.6,91.9-15.8,84.6-6,169.4-6.5,254.2-6,60.4.3,121.2,3.2,181.6,1.6,10.2-.3,23,3.3,29.5,11.7C874.6,747.2,866.6,774.4,862.8,792.2Z" transform="translate(-162.7 -135)"></path><path class="cls-56" d="M432.5,877.1A12.5,12.5,0,0,1,420.3,890h0a12.5,12.5,0,0,1-12.8-12.2l-4.1-151.1a12.4,12.4,0,0,1,12.2-12.9h0A12.4,12.4,0,0,1,428.4,726Z" transform="translate(-162.7 -135)"></path><path class="cls-57" d="M762,868a12.6,12.6,0,0,1-12.2,13h0A12.6,12.6,0,0,1,737,868.7l-4.1-151.1A12.5,12.5,0,0,1,745,704.7h0a12.5,12.5,0,0,1,12.9,12.2Z" transform="translate(-162.7 -135)"></path><path class="cls-58" d="M375.1,1175.1s-78.1-26.2-73.6,31-16.2,211,103.1,203.8C387.2,1305.9,375.1,1175.1,375.1,1175.1Z" transform="translate(-162.7 -135)"></path><path class="cls-59" d="M385.5,1216s-68.2,40.6-83.2,29.4-18.7-77.7,33.4-76.2S404.8,1185.1,385.5,1216Z" transform="translate(-162.7 -135)"></path><path class="cls-60" d="M804,1163.3s76.6-30.5,75.1,27,27.8,209.7-91.8,209.1C799,1294.6,804,1163.3,804,1163.3Z" transform="translate(-162.7 -135)"></path><path class="cls-61" d="M795.9,1204.7s70.3,36.8,84.6,24.8,14.5-78.6-37.5-74.3S774.9,1174.9,795.9,1204.7Z" transform="translate(-162.7 -135)"></path><path class="cls-62" d="M618.9,804.3l-70.7,2L544.5,863l19.2-27.8a7.8,7.8,0,0,1,5.6-3.3l30.1-1.6a6.9,6.9,0,0,1,6.1,2.8l20.4,27,6.9-20.8Z" transform="translate(-162.7 -135)"></path><path class="cls-63" d="M645.1,836.8l-25.8-33.9,2.9,107.3,24.7,11.5,2.8-70.5A22,22,0,0,0,645.1,836.8Z" transform="translate(-162.7 -135)"></path><path class="cls-64" d="M524.5,840.1l24.1-35.2,2.9,107.3-24.2,12.7-6.6-70.1A21.9,21.9,0,0,1,524.5,840.1Z" transform="translate(-162.7 -135)"></path><path class="cls-65" d="M797.5,897.1c-1.1-40.9-106.7-38.5-173.9-32.7a688.3,688.3,0,0,1-76,2.1c-67.4-2.1-173.2,1.2-172.1,42.2,1.7,60-11.5,496.5,29.1,501.2,32.9,3.8,151.8-2.4,195.6-4.8,43.9,0,162.9-.3,195.5-5.9C836,1392.3,799.2,957.1,797.5,897.1Z" transform="translate(-162.7 -135)"></path><path class="cls-66" d="M774.5,1397.5s-295.1,18.4-349,9.6c-38.6-6.4-41.5-121.4-40-186.4.1-6.8.3-13.1.6-18.6.5-14.4,9.4-25.7,20.5-26.3,163.2-8,312.7-9.7,365.4-10,11.3-.1,20.9,11.1,22,25.8.6,8.5,1.4,18.6,2.2,29.5h0c3.3,44.2,7.5,101.7,8.6,119.9C806.7,1372.1,774.5,1397.5,774.5,1397.5Z" transform="translate(-162.7 -135)"></path><path class="cls-67" d="M796.3,1221.1,781.2,1201a19,19,0,0,0-16.5-8.1l-356.2,9.8a18.5,18.5,0,0,0-15.6,8.3l-7.3,10.2c.2-6.9.4-13.3.6-18.9.5-14.3,9.4-25.8,20.5-26.4,163.2-8,312.7-9.7,365.4-10.1,11.3,0,20.9,11.1,22,25.8C794.7,1200.1,795.5,1210.2,796.3,1221.1Z" transform="translate(-162.7 -135)"></path><path class="cls-68" d="M374.8,877.7s-23,173.8,40.2,183.7,373.6,12.9,382-10.5,25.2-183.1-19.3-194S378.1,838.8,374.8,877.7Z" transform="translate(-162.7 -135)"></path><path class="cls-69" d="M475.4,1104.6a20.3,20.3,0,0,1-19.7,20.9h0a20.3,20.3,0,0,1-20.8-19.8l-6.8-247.9a20.4,20.4,0,0,1,19.7-20.9h0a20.3,20.3,0,0,1,20.8,19.8Z" transform="translate(-162.7 -135)"></path><path class="cls-70" d="M471.8,1032.1h0c-.3,0-.6,1-.9,1H431.7a18.1,18.1,0,0,1-17.7-15.6l-3-22.1a17.9,17.9,0,0,1,3.9-13.9,17.5,17.5,0,0,1,12.8-6.7l45.9-3.2a18.3,18.3,0,0,1,19.3,20.9l-3.7,25C487.9,1026.3,480.5,1032.1,471.8,1032.1Zm2.8-50.8h-.3l-45.9,3.2a8.9,8.9,0,0,0-6.1,3.1,9.3,9.3,0,0,0-1.8,6.6l3,22.3a8.5,8.5,0,0,0,8.3,7.4l39.5.6h0a8.7,8.7,0,0,0,8.3-7.4l3.7-26a8.4,8.4,0,0,0-2.2-7.1A8.3,8.3,0,0,0,474.6,981.3Z" transform="translate(-162.7 -135)"></path><path class="cls-71" d="M736.4,849.3a20.2,20.2,0,0,0-20.7-19.7h0A20.3,20.3,0,0,0,696,850.5l6.7,247.9a20.3,20.3,0,0,0,20.8,19.8h0a20.3,20.3,0,0,0,19.7-20.9Z" transform="translate(-162.7 -135)"></path><path class="cls-72" d="M684.2,1012.2,679,986.9a17.9,17.9,0,0,1,3.8-15.1,18.1,18.1,0,0,1,14.2-6.4l46,.7a18.3,18.3,0,0,1,17.9,19.8l-1.8,22.4a18.4,18.4,0,0,1-16.9,16.8l-38.9,1.7c-.3,0-.4-1-.6-1h0C693.3,1027.4,686,1020.9,684.2,1012.2Zm6-33.9a8.5,8.5,0,0,0-1.8,7.2l5.1,25.7a8.7,8.7,0,0,0,8.6,6.9h0l39.5-2.7a8.7,8.7,0,0,0,7.9-7.9l1.8-22.4a8.6,8.6,0,0,0-8.4-9.2l-46-.7h-.4A8.5,8.5,0,0,0,690.2,978.3Z" transform="translate(-162.7 -135)"></path><path class="cls-10" d="M404.2,1360.7a1.5,1.5,0,0,1-1.6-1.3L399,1225.8a1.5,1.5,0,0,1,1.5-1.5,1.6,1.6,0,0,1,1.6,1.5l3.6,133.5c.1.8-.6,1.4-1.5,1.4Z" transform="translate(-162.7 -135)"></path><path class="cls-10" d="M776.1,1351.3a1.7,1.7,0,0,1-1.6-1.7l-3.6-133.8a1.6,1.6,0,0,1,1.5-1.6,1.4,1.4,0,0,1,1.6,1.5l3.6,133.8a1.7,1.7,0,0,1-1.5,1.8Z" transform="translate(-162.7 -135)"></path><path class="cls-73" d="M312.7,1221.2c.1,3.9-2.1,7.2-5,7.2s-5.2-3-5.3-6.9,2.1-7.2,5-7.3S312.6,1217.3,312.7,1221.2Z" transform="translate(-162.7 -135)"></path><path class="cls-74" d="M879.2,1205.6c.1,4-2.1,7.2-5,7.3s-5.2-3.1-5.3-7,2.1-7.1,4.9-7.2S879.1,1201.7,879.2,1205.6Z" transform="translate(-162.7 -135)"></path><path class="cls-75" d="M338.1,859.7a62.1,62.1,0,0,1-33.8-30.6,272.9,272.9,0,0,1-10-40.3,157.5,157.5,0,0,1,2.3-37.3c1-4.8,4-8.7,8.4-11.9C322.9,786.9,334.7,842.3,338.1,859.7Z" transform="translate(-162.7 -135)"></path><path class="cls-76" d="M1948.2,985.9l6-54.6c1.4-12.5,11-21.5,22-20.7l77.7,5.8c12.6,1,22.2,13.1,21.9,27.5l-5.6,219.9c-.4,14.8-10.1,27.1-23,29.1l-80.5,12.6Z" transform="translate(-162.7 -135)"></path><path class="cls-77" d="M1938.1,994.2h129.5a10.9,10.9,0,0,0,10.9-11.5l-1.8-44.5a23.8,23.8,0,0,0-21.9-22.8l-106.6-8Z" transform="translate(-162.7 -135)"></path><path class="cls-78" d="M2041.3,1114.6c6.5,6.8,16,12.6,22.7,16.2-9.7,12.5-22.9,25.1-40.5,37.5l-4.9,11.5-16.7-19.4S2031,1145.3,2041.3,1114.6Z" transform="translate(-162.7 -135)"></path><path class="cls-79" d="M1959.9,1488.9a4.1,4.1,0,0,1,.1-1.1c4.9-21.1,31-34.7,31-34.7l10.4.7c6.2,18.4,5.7,29.8,4.8,34.9,0,.2-.1.3-.1.4A250.3,250.3,0,0,1,1959.9,1488.9Z" transform="translate(-162.7 -135)"></path><path class="cls-80" d="M2006.1,1489.1a4.6,4.6,0,0,1-3.3,3.4c-12.1,2.8-31.5,1.1-39.7.1a3.8,3.8,0,0,1-3.2-3.7A250.3,250.3,0,0,0,2006.1,1489.1Z" transform="translate(-162.7 -135)"></path><path class="cls-81" d="M2005.3,1438.1l-4.1,21.4a3.3,3.3,0,0,1-2.9,2.9,25.6,25.6,0,0,1-6.8,0,4.3,4.3,0,0,1-3.5-5.1l2.7-18.9Z" transform="translate(-162.7 -135)"></path><path class="cls-82" d="M1914.9,1490.4c11.5-.5,17.4-2,20.4-3.3.1,1.2.1,2.3.1,3.5a2.4,2.4,0,0,1-2.2,2.4l-63,.6c-2,0-3.2-2.3-2.4-4.2C1876.1,1490,1897.2,1491.2,1914.9,1490.4Z" transform="translate(-162.7 -135)"></path><path class="cls-83" d="M1867.8,1489.4l.3-.4c5.4-8,19.3-23.8,47.2-31l13.5-.6s6.1,10.4,6.5,29.7c-3,1.3-8.9,2.8-20.4,3.3C1897.2,1491.2,1876.1,1490,1867.8,1489.4Z" transform="translate(-162.7 -135)"></path><path class="cls-84" d="M1930.9,1436.9c-.1,1-1.7,16.3-2.3,22.3a3.1,3.1,0,0,1-2.4,2.7,32,32,0,0,1-9.3,0,4,4,0,0,1-3-4l-.4-24Z" transform="translate(-162.7 -135)"></path><path class="cls-85" d="M1937.2,1157.4s-30.4,124.4-27.3,280.2a6.2,6.2,0,0,0,4.8,5.8,70.9,70.9,0,0,0,15.1,1.5,5.5,5.5,0,0,0,5.2-4.8c4.2-26.8,27.8-178.2,42.3-202.9,0,0,11.9,134.2,9.9,204a3.3,3.3,0,0,0,3,3.4,54.7,54.7,0,0,0,12-.2,4.6,4.6,0,0,0,3.9-3.8c2.9-22.8,19.3-158,17-255.3-.2-5.4-14.9-29-14.9-29Z" transform="translate(-162.7 -135)"></path><path class="cls-86" d="M1889.8,1008.3c5-8.8,10.1-17.5,15.2-26.3,39.8-29.9,100.8-16.1,124.3-13.5a31.8,31.8,0,0,1,20,10.4c20.5,23.1,65.7,86.5,14.7,151.9-6.7-3.6-16.2-9.4-22.7-16.2,5.4-16.4,5.6-37.2-6.9-62.5-.4,2-.8,4-1.4,6-15.8,53.2-16,97.2-15.8,107.3a3.2,3.2,0,0,1-2,3.2c-21.7,9.2-63.9,4.6-78.1,2.7a4.7,4.7,0,0,1-4-5.3c6.1-50.7-30.8-133.1-40.5-153.8A13.9,13.9,0,0,0,1889.8,1008.3Z" transform="translate(-162.7 -135)"></path><path class="cls-87" d="M1990.8,926.6l4.9,43.2s-24.1,7.8-41.9-4.4l11.8-39.6Z" transform="translate(-162.7 -135)"></path><path class="cls-88" d="M1962,877.8c-.6.5-23.9,48.3-23.9,48.3l27.5,12.8,28.7-42S1971.6,868.4,1962,877.8Z" transform="translate(-162.7 -135)"></path><path class="cls-89" d="M1982.3,898.2a4.5,4.5,0,0,1-.3,3.9L1968.8,925a8.6,8.6,0,0,1-.7,1c-1.6,1.5-7.1,6-11.5.1s-7.2-9.6-10.9-11.5a4.4,4.4,0,0,0-5.8,2,165,165,0,0,0-8.9,22.3,4.3,4.3,0,0,0,2.6,5.3c5.5,2.2,16.5,6.1,26.2,7.3a4.5,4.5,0,0,0,4-1.9c4.1-5.8,15.6-22,19.5-26s10.5-2.5,13.6-1.7a4.3,4.3,0,0,0,3.5-.5c3.1-1.9,8.5-6.8,3.4-14.7a4.3,4.3,0,0,1,1.2-5.9c3.5-2.4,7.2-6.8,3.5-13.8s-10.3-7.6-14.8-7a4.5,4.5,0,0,1-4.8-2.5,2.8,2.8,0,0,0-2.2-1.8,4.2,4.2,0,0,1-3.5-4.9c.7-4,0-9.3-6.4-12.7-11.9-6.3-22,4.4-24.5,13.4s10.8,15.1,19.1,16C1977.4,888.2,1980.9,894.8,1982.3,898.2Z" transform="translate(-162.7 -135)"></path><path class="cls-90" d="M1978.3,932s5-15.4,11.7-15,12.1,7.1,3.9,14.7C1983.8,941.3,1978.3,932,1978.3,932Z" transform="translate(-162.7 -135)"></path><path class="cls-91" d="M2036.6,1048.1c8.4-24.4,4.7-53.6,4.7-53.9l-2.4.3c0,.3,3.6,28.9-4.7,52.8Z" transform="translate(-162.7 -135)"></path><path class="cls-92" d="M1978.4,1234a1.2,1.2,0,0,0,1.2-1c2.5-10.4,22.5-22.2,22.7-22.3a1.4,1.4,0,0,0,.4-1.7,1.3,1.3,0,0,0-1.7-.5c-.8.6-21,12.5-23.8,24a1.2,1.2,0,0,0,.9,1.4Z" transform="translate(-162.7 -135)"></path><path class="cls-93" d="M1808.1,1023.2c45.7,6.1,75-23.3,96.9-41.2,28.8-23.6,51.8-12.7,51.8-12.7l-30.2,60.3c-45.9,44.9-93.8,35.9-124.1,22.1A58.2,58.2,0,0,1,1808.1,1023.2Z" transform="translate(-162.7 -135)"></path><path class="cls-94" d="M1743.6,996.9l15.3,7.9c18.3,10.8,34.6,16.4,49.2,18.4a58.2,58.2,0,0,0-5.6,28.5,135.8,135.8,0,0,1-31.5-19.6C1736.4,1012.2,1743.6,996.9,1743.6,996.9Z" transform="translate(-162.7 -135)"></path><path class="cls-95" d="M1699.4,1019a11.4,11.4,0,0,1,6.4-7.3l30.5-12.9s.4-3.9-6.6-6.5-5.5-10.4-5.5-10.4,9.6,4.2,23.6,10.9c8,3.8,12.6,10.7,15,15.9l-7.7,10.6c-18.8,6-38,7.4-57.3,5.4Z" transform="translate(-162.7 -135)"></path><path class="cls-96" d="M2026.5,1108.3c-11.3-54.2-20.3-104.8-21.2-143,8.1-8.5,16.7-7.3,25.9,3.5-2.8,29-.9,76.6,1.5,126.6a14.4,14.4,0,0,1-4.4,11.1Z" transform="translate(-162.7 -135)"></path><path class="cls-97" d="M1917.8,1075c11.2-42.2,25.7-91.2,25-109.1-6.2-6.1-14.6-3.4-25,6.7,3.3,14.4-1.7,54-5.6,90.3Z" transform="translate(-162.7 -135)"></path><path class="cls-98" d="M2126.2,1488.6c-7,6.4-12.8.1-14.7-.7.1,1.3-15.4,4.4-26.2,5.7s-12.9,11.8-8,14,21.4,2.8,29.9.8,13.4,1.1,20.2,1.7a4.3,4.3,0,0,0,4.6-3.5C2134.1,1496.5,2126.2,1488.6,2126.2,1488.6Z" transform="translate(-162.7 -135)"></path><path class="cls-99" d="M2089.1,946s-13.1-35.8,30.2-31.7c0,0,20-6.1,23.6,13.1,0,0,14.3,6.9,6.9,25,0,0,37.1-20.5,58.7,11.7s8.5,53.2-7.2,60.3c0,0,14.1,4.9,9.9,20.9s-34.7,31-56,15.1c0,0-52.6,14.4-56.6-23.8,0,0-27.1-12.8-5.1-47.8S2089.1,946,2089.1,946Z" transform="translate(-162.7 -135)"></path><path class="cls-100" d="M2093.3,1022.3c8.5-2.5,33.3-7.3,56.9,14.6a14.7,14.7,0,0,1,4.2,14.7c-6.3,23.4-23,92.7-8.4,122.7,0,0-25.8,28.6-54,5.5,0,0-12.6-55.4-29.2-79.7-11.4-16.8,18.2-63.1,25.7-74.2A9.1,9.1,0,0,1,2093.3,1022.3Z" transform="translate(-162.7 -135)"></path><path class="cls-101" d="M2127.2,973.5s2.2,38.1,3.2,53.9a27.1,27.1,0,0,1-27.1-4.4s2.3-36,.3-42.4Z" transform="translate(-162.7 -135)"></path><path class="cls-102" d="M2091.5,936.4s-26.5,50.3-5.2,61,40.2-25,40.2-25,4.2-26.2-4.8-33.7S2091.5,936.4,2091.5,936.4Z" transform="translate(-162.7 -135)"></path><path class="cls-103" d="M2105.2,923.3s-14.5,5.6-15.7,12.8,23,10.2,29.6,9.7l9,26.8s12.1-28,3.9-42.2S2105.2,923.3,2105.2,923.3Z" transform="translate(-162.7 -135)"></path><path class="cls-104" d="M2119.7,969.8s10.8-16.5,17.1-7.5-9.2,18.4-15.5,14.5Z" transform="translate(-162.7 -135)"></path><path class="cls-105" d="M2145.9,1469.1c-7.5-18.3-26.7-69.5-31.5-92.2-5.5-25.8-34-46.7-34-46.7l43.4-67.2-14-5.2-40.4,3.7s-14.6,57.2-17,67.8a17.3,17.3,0,0,0,1.9,12.6l83.3,139.8C2137.9,1482.2,2147.1,1471.9,2145.9,1469.1Z" transform="translate(-162.7 -135)"></path><path class="cls-106" d="M2141.5,1328.8l25.8-80.6-57.5,9.6-1.2,60.7s2.9,125.3,3.3,143.1c.1,6.5,1,16.2-.3,26-.2,1.2.5,1.7,1.3,2.2,3.9,2.5,7.8,4.1,13.6-1l-1.3-4.7c-.4-3.1,1.2-6.9,1.9-10.3,3.9-18.7,16.7-80.8,20.2-94.1s4.2-33.2-6.5-49.7Z" transform="translate(-162.7 -135)"></path><path class="cls-107" d="M2109.8,1280s34.2-5.5,51.9-2.7l1.8-.3c1.5-7.1,2.8-12.8,3.4-15.6,8.4-37.8,17.7-78.6-23.4-103.3-19,8.2-36.7,13-55.4,8.2,0,0,3.7,11.9-2,31.5l-20,69.7C2077.6,1269.1,2107.5,1276.4,2109.8,1280Z" transform="translate(-162.7 -135)"></path><path class="cls-108" d="M2109.8,1280s34.2-5.5,51.9-2.7l1.8-.3c1.5-7.1,2.8-12.8,3.4-15.6,8.4-37.8,17.7-78.6-23.4-103.3-19,8.2-36.7,13-55.4,8.2.3,1.8.8,4.8,1.1,8.4a90.7,90.7,0,0,1,.4,9.8c0,4.7,4.7,14.2,25.4,35.6-.5,10.5-1.2,21.4-2.2,32.7C2111.9,1262.2,2110.9,1271.3,2109.8,1280Z" transform="translate(-162.7 -135)"></path><path class="cls-109" d="M2156.8,1044.9s40.9,33,51.6,78.9-58.1,51.9-58.1,51.9-9.5-10.3-20.6-6.4-1.1-18.3,11.9-18.5,7.1,10.3,25.4,1.6,28.4-33.8-17.9-71.3a21.8,21.8,0,0,1-6.2-8.2C2133.7,1050.6,2140.5,1035.7,2156.8,1044.9Z" transform="translate(-162.7 -135)"></path><path class="cls-110" d="M2145.9,1468.7c-.5,9.2-8.6,8.8-10.4,9.5.9.8-7.4,13.5-13.9,21.7s-.7,16.7,4,14.8,16.3-12.6,20.8-19.7,9.7-8.3,14.7-12.6a4.2,4.2,0,0,0,.8-5.4C2156.5,1468.7,2145.9,1468.7,2145.9,1468.7Z" transform="translate(-162.7 -135)"></path><path class="cls-111" d="M1814.6,1319.6H1775a6,6,0,0,1-6-6V1102.9a6,6,0,0,1,6-6h39.6a6,6,0,0,1,6,6v210.7A6,6,0,0,1,1814.6,1319.6ZM1775,1098.9a4,4,0,0,0-4,4v210.7a4,4,0,0,0,4,4h39.6a4,4,0,0,0,4-4V1102.9a4,4,0,0,0-4-4Z" transform="translate(-162.7 -135)"></path><path class="cls-112" d="M1822.1,1143h-5v-33.3a9.3,9.3,0,0,0-9.3-9.3h-26a9.3,9.3,0,0,0-9.3,9.3V1143h-5v-33.3a14.3,14.3,0,0,1,14.3-14.3h26a14.3,14.3,0,0,1,14.3,14.3Z" transform="translate(-162.7 -135)"></path><rect class="cls-113" x="1567" y="1070.5" width="122.3" height="280.58" rx="5"></rect><path class="cls-114" d="M1853.7,1204.8h-11.8v281.1h11.8a11.9,11.9,0,0,0,11.8-11.9V1216.7A11.9,11.9,0,0,0,1853.7,1204.8Z" transform="translate(-162.7 -135)"></path><rect class="cls-115" x="1585" y="1326" width="16.5" height="30.85" rx="3.5"></rect><rect class="cls-116" x="1667.4" y="1326" width="16.5" height="30.85" rx="3.5"></rect><path class="cls-117" d="M1320.3,532.3c-.1-4.2-2.5-8.1-6.5-10.9a23.5,23.5,0,0,0-14.6-3.9L759.1,554.1c-10,.7-18,7.3-18,15.2v849c0,8.4,9.3,14.5,20,14.5h565.6c5.2,0,10.2-1.3,13.8-4.2s5.7-6.7,5.6-10.8Z" transform="translate(-162.7 -135)"></path><path class="cls-118" d="M832.1,606.2h-.4c-18,0-32.6,15.1-32.6,33.2v31.5h33Z" transform="translate(-162.7 -135)"></path><path class="cls-118" d="M799.1,680.1v24.2c0,3.2,2.6,5.4,5.8,5.4h27.2V680.1Z" transform="translate(-162.7 -135)"></path><path class="cls-118" d="M841.8,606.2h-.5v64.7h33.1V639.4C874.4,621.3,859.8,606.2,841.8,606.2Z" transform="translate(-162.7 -135)"></path><path class="cls-118" d="M841.3,709.7h27.3c3.2,0,5.8-2.2,5.8-5.4V680.1H841.3Z" transform="translate(-162.7 -135)"></path><path class="cls-118" d="M970,606.2h-.4c-18,0-32.7,15.1-32.7,33.2v31.5H970Z" transform="translate(-162.7 -135)"></path><path class="cls-118" d="M936.9,680.1v24.2c0,3.2,2.6,5.4,5.9,5.4H970V680.1Z" transform="translate(-162.7 -135)"></path><path class="cls-118" d="M979.7,606.2h-.5v64.7h33.1V639.4C1012.3,621.3,997.7,606.2,979.7,606.2Z" transform="translate(-162.7 -135)"></path><path class="cls-118" d="M979.2,709.7h27.3c3.2,0,5.8-2.2,5.8-5.4V680.1H979.2Z" transform="translate(-162.7 -135)"></path><path class="cls-118" d="M1107.9,606.2h-.4c-18.1,0-32.7,15.1-32.7,33.2v31.5h33.1Z" transform="translate(-162.7 -135)"></path><path class="cls-118" d="M1074.8,680.1v24.2c0,3.2,2.6,5.4,5.9,5.4h27.2V680.1Z" transform="translate(-162.7 -135)"></path><path class="cls-118" d="M1117.6,606.2h-.5v64.7h33.1V639.4C1150.2,621.3,1135.6,606.2,1117.6,606.2Z" transform="translate(-162.7 -135)"></path><path class="cls-118" d="M1117.1,709.7h27.3c3.2,0,5.8-2.2,5.8-5.4V680.1h-33.1Z" transform="translate(-162.7 -135)"></path><path class="cls-118" d="M1245.8,606.2h-.5c-18,0-32.6,15.1-32.6,33.2v31.5h33.1Z" transform="translate(-162.7 -135)"></path><path class="cls-118" d="M1212.7,680.1v24.2c0,3.2,2.6,5.4,5.8,5.4h27.3V680.1Z" transform="translate(-162.7 -135)"></path><path class="cls-118" d="M1255.5,606.2h-.5v64.7h33.1V639.4C1288.1,621.3,1273.5,606.2,1255.5,606.2Z" transform="translate(-162.7 -135)"></path><path class="cls-118" d="M1255,709.7h27.3c3.2,0,5.8-2.2,5.8-5.4V680.1H1255Z" transform="translate(-162.7 -135)"></path><path class="cls-118" d="M832.1,787.3h-.4c-18,0-32.6,15.1-32.6,33.3V852h33Z" transform="translate(-162.7 -135)"></path><path class="cls-118" d="M799.1,861.3v24.1c0,3.2,2.6,5.4,5.8,5.4h27.2V861.3Z" transform="translate(-162.7 -135)"></path><path class="cls-118" d="M841.8,787.3h-.5V852h33.1V820.6C874.4,802.4,859.8,787.3,841.8,787.3Z" transform="translate(-162.7 -135)"></path><path class="cls-118" d="M841.3,890.8h27.3c3.2,0,5.8-2.2,5.8-5.4V861.3H841.3Z" transform="translate(-162.7 -135)"></path><path class="cls-118" d="M970,787.3h-.4c-18,0-32.7,15.1-32.7,33.3V852H970Z" transform="translate(-162.7 -135)"></path><path class="cls-118" d="M936.9,861.3v24.1c0,3.2,2.6,5.4,5.9,5.4H970V861.3Z" transform="translate(-162.7 -135)"></path><path class="cls-118" d="M979.7,787.3h-.5V852h33.1V820.6C1012.3,802.4,997.7,787.3,979.7,787.3Z" transform="translate(-162.7 -135)"></path><path class="cls-118" d="M979.2,890.8h27.3c3.2,0,5.8-2.2,5.8-5.4V861.3H979.2Z" transform="translate(-162.7 -135)"></path><path class="cls-118" d="M1107.9,787.3h-.4c-18.1,0-32.7,15.1-32.7,33.3V852h33.1Z" transform="translate(-162.7 -135)"></path><path class="cls-118" d="M1074.8,861.3v24.1c0,3.2,2.6,5.4,5.9,5.4h27.2V861.3Z" transform="translate(-162.7 -135)"></path><path class="cls-118" d="M1117.6,787.3h-.5V852h33.1V820.6C1150.2,802.4,1135.6,787.3,1117.6,787.3Z" transform="translate(-162.7 -135)"></path><path class="cls-118" d="M1117.1,890.8h27.3c3.2,0,5.8-2.2,5.8-5.4V861.3h-33.1Z" transform="translate(-162.7 -135)"></path><path class="cls-118" d="M1245.8,787.3h-.5c-18,0-32.6,15.1-32.6,33.3V852h33.1Z" transform="translate(-162.7 -135)"></path><path class="cls-118" d="M1212.7,861.3v24.1c0,3.2,2.6,5.4,5.8,5.4h27.3V861.3Z" transform="translate(-162.7 -135)"></path><path class="cls-118" d="M1255.5,787.3h-.5V852h33.1V820.6C1288.1,802.4,1273.5,787.3,1255.5,787.3Z" transform="translate(-162.7 -135)"></path><path class="cls-118" d="M1255,890.8h27.3c3.2,0,5.8-2.2,5.8-5.4V861.3H1255Z" transform="translate(-162.7 -135)"></path><path class="cls-118" d="M832.1,968.5h-.4c-18,0-32.6,15.1-32.6,33.2v31.4h33Z" transform="translate(-162.7 -135)"></path><path class="cls-118" d="M799.1,1042.4v24.1a5.6,5.6,0,0,0,5.8,5.5h27.2v-29.6Z" transform="translate(-162.7 -135)"></path><path class="cls-118" d="M841.8,968.5h-.5v64.6h33.1v-31.4C874.4,983.6,859.8,968.5,841.8,968.5Z" transform="translate(-162.7 -135)"></path><path class="cls-118" d="M841.3,1072h27.3a5.6,5.6,0,0,0,5.8-5.5v-24.1H841.3Z" transform="translate(-162.7 -135)"></path><path class="cls-118" d="M970,968.5h-.4c-18,0-32.7,15.1-32.7,33.2v31.4H970Z" transform="translate(-162.7 -135)"></path><path class="cls-118" d="M936.9,1042.4v24.1a5.6,5.6,0,0,0,5.9,5.5H970v-29.6Z" transform="translate(-162.7 -135)"></path><path class="cls-118" d="M979.7,968.5h-.5v64.6h33.1v-31.4C1012.3,983.6,997.7,968.5,979.7,968.5Z" transform="translate(-162.7 -135)"></path><path class="cls-118" d="M979.2,1072h27.3a5.6,5.6,0,0,0,5.8-5.5v-24.1H979.2Z" transform="translate(-162.7 -135)"></path><path class="cls-118" d="M1107.9,968.5h-.4c-18.1,0-32.7,15.1-32.7,33.2v31.4h33.1Z" transform="translate(-162.7 -135)"></path><path class="cls-118" d="M1074.8,1042.4v24.1a5.6,5.6,0,0,0,5.9,5.5h27.2v-29.6Z" transform="translate(-162.7 -135)"></path><path class="cls-118" d="M1117.6,968.5h-.5v64.6h33.1v-31.4C1150.2,983.6,1135.6,968.5,1117.6,968.5Z" transform="translate(-162.7 -135)"></path><path class="cls-118" d="M1117.1,1072h27.3a5.6,5.6,0,0,0,5.8-5.5v-24.1h-33.1Z" transform="translate(-162.7 -135)"></path><path class="cls-118" d="M1245.8,968.5h-.5c-18,0-32.6,15.1-32.6,33.2v31.4h33.1Z" transform="translate(-162.7 -135)"></path><path class="cls-118" d="M1212.7,1042.4v24.1a5.6,5.6,0,0,0,5.8,5.5h27.3v-29.6Z" transform="translate(-162.7 -135)"></path><path class="cls-118" d="M1255.5,968.5h-.5v64.6h33.1v-31.4C1288.1,983.6,1273.5,968.5,1255.5,968.5Z" transform="translate(-162.7 -135)"></path><path class="cls-118" d="M1255,1072h27.3a5.6,5.6,0,0,0,5.8-5.5v-24.1H1255Z" transform="translate(-162.7 -135)"></path><polygon class="cls-119" points="564.1 425.9 874.4 165.8 1167.6 419.5 564.1 425.9"></polygon><path class="cls-120" d="M1320.9,552.8H737.3a6.5,6.5,0,0,0-3.3.7q-1.3.6-1.2,1.5l4.7,20.3c.3,1,2.2,1.8,4.5,1.8h578.9c2.5,0,4.5-.9,4.5-2V554.8C1325.4,553.7,1323.4,552.8,1320.9,552.8Z" transform="translate(-162.7 -135)"></path><rect class="cls-121" x="578.4" y="1230.4" width="238.2" height="71.35"></rect><rect class="cls-122" x="945.2" y="1233.9" width="238.2" height="71.35"></rect><rect class="cls-123" x="777" y="1284.1" width="215.1" height="22.18"></rect><path class="cls-10" d="M966.4,1244.9c0-11.1,35.8-17.5,79.9-17.5s80,6.4,80,17.5Z" transform="translate(-162.7 -135)"></path><rect class="cls-118" x="802.7" y="1117.3" width="77.2" height="166.33"></rect><rect class="cls-118" x="887.3" y="1117.3" width="75.4" height="166.33"></rect><path class="cls-118" d="M857,1164.8H812.4c-6.9,0-12.4,6-12.4,12.9v86.9h57Z" transform="translate(-162.7 -135)"></path><path class="cls-118" d="M907.1,1164.8H864.3v99.8h55.2v-86.9C919.5,1170.8,913.9,1164.8,907.1,1164.8Z" transform="translate(-162.7 -135)"></path><path class="cls-118" d="M800,1293.2a12.1,12.1,0,0,0,12.4,12.1h94.7a12.1,12.1,0,0,0,12.4-12.1V1272H800Z" transform="translate(-162.7 -135)"></path><path class="cls-118" d="M1228.3,1163.7h-44.6c-6.8,0-12.4,5.9-12.4,12.8v87h57Z" transform="translate(-162.7 -135)"></path><path class="cls-118" d="M1278.4,1163.7h-42.7v99.8h55.1v-87A12.7,12.7,0,0,0,1278.4,1163.7Z" transform="translate(-162.7 -135)"></path><path class="cls-118" d="M1171.3,1292a12.1,12.1,0,0,0,12.4,12.1h94.7a12.1,12.1,0,0,0,12.4-12.1v-21.2H1171.3Z" transform="translate(-162.7 -135)"></path><ellipse class="cls-118" cx="874.4" cy="311.3" rx="47.2" ry="47.4"></ellipse><ellipse class="cls-124" cx="874.4" cy="311.3" rx="38.9" ry="39.1"></ellipse><path class="cls-125" d="M726.8,560.9l302.4-244.6a12.5,12.5,0,0,1,15.8.1l285.3,238.1,16-16.5a8.3,8.3,0,0,0-.6-12.1L1044.5,269.8a11.5,11.5,0,0,0-14.8-.2L707.9,533.4a6,6,0,0,0-.3,8.9Z" transform="translate(-162.7 -135)"></path><path class="cls-126" d="M1288.5,642h1.4a29.4,29.4,0,0,1,29.4,29.4v689.5a0,0,0,0,1,0,0h-66.4a0,0,0,0,1,0,0V677.6A35.6,35.6,0,0,1,1288.5,642Z"></path><rect class="cls-127" x="1076.7" y="737.3" width="419.9" height="255.87" rx="33.4"></rect><rect class="cls-10" x="1086.9" y="748.6" width="400.3" height="237.31" rx="33.4"></rect><path class="cls-128" d="M1442.6,1498.4a4.5,4.5,0,0,1-3-1.6c-11.5-13.2-95.1-117.5-2.3-225.7,88.2-102.7,130-125.5,131.5-182,.2-6.6,8.9-8.9,12.2-3.2,25,42.5,66.4,142.9-40.2,219-117.6,83.8-101.4,164.8-93.7,187.6a4.5,4.5,0,0,1-4.5,5.9Z" transform="translate(-162.7 -135)"></path><path class="cls-129" d="M1458.1,1499.3a6.6,6.6,0,0,1-5.9-4.9c-4.3-19-16.9-89.9,34.1-112.8,56.1-25.2,106.7,25.2,145.9-20.2a3.2,3.2,0,0,1,5.7,2.4c-2.2,22.3-15.2,74.8-89.2,90.7-79.2,17.1-87.5,27-85,38.3a5.4,5.4,0,0,1-5.6,6.5Z" transform="translate(-162.7 -135)"></path><path class="cls-130" d="M1570.3,1146.5a98.5,98.5,0,0,1-2.9,12.2,117.2,117.2,0,0,1-4.4,11.7,141.4,141.4,0,0,1-11.7,22.1,176.6,176.6,0,0,1-32.9,37.7,220.2,220.2,0,0,1-19.8,15.1,189.8,189.8,0,0,0-18.7,14.8,211.8,211.8,0,0,0-31.8,35.8c-18.3,26.2-30.4,57.1-32.7,89.1a165,165,0,0,0,3.3,48c3.3,15.8,9,31,16.1,45.7a1.6,1.6,0,0,1-.7,2.1,1.7,1.7,0,0,1-2.1-.7,187.3,187.3,0,0,1-18.6-45.9,168.9,168.9,0,0,1-4.4-24.6,174,174,0,0,1-.7-25,171.4,171.4,0,0,1,9.8-49.1,195.2,195.2,0,0,1,22.7-44.6,210.9,210.9,0,0,1,33-37.6,197.2,197.2,0,0,1,19.6-15.6,228.7,228.7,0,0,0,19.2-14.4,193.2,193.2,0,0,0,32.7-34.9,158.8,158.8,0,0,0,12.8-20.4,126.5,126.5,0,0,0,9.4-22.1h0a1.5,1.5,0,0,1,1.8-.9A1.4,1.4,0,0,1,1570.3,1146.5Z" transform="translate(-162.7 -135)"></path><path class="cls-130" d="M1453.8,1486.6a4.5,4.5,0,0,0,0-2l-.2-2-.4-3.9c-.2-2.7-.3-5.3-.4-7.9-.1-5.3-.1-10.6.2-15.8.7-10.6,2.2-21.1,5.7-31.2s9-19.8,17.6-26.6a44,44,0,0,1,14.5-7.3,54.1,54.1,0,0,1,16-2c21,.9,41.7,3.3,62.4,5.1,10.3.7,20.8,1.3,30.7-.8a50,50,0,0,0,7.2-2.3,35.3,35.3,0,0,0,6.6-3.6,48.8,48.8,0,0,0,10.8-10.5h.1a1.2,1.2,0,0,1,1.7-.2,1.3,1.3,0,0,1,.3,1.8,50.9,50.9,0,0,1-11.3,11.4,40.7,40.7,0,0,1-7,4,43.6,43.6,0,0,1-7.7,2.6c-10.6,2.4-21.2,1.9-31.6,1.2s-20.9-1.8-31.2-2.7-20.8-1.8-31.1-2.2a50.6,50.6,0,0,0-15,1.8,37.7,37.7,0,0,0-13.3,6.6c-8.1,6-13.6,15.1-17.1,24.7s-5.2,20.1-6,30.4c-.4,5.2-.6,10.4-.5,15.6,0,2.6.1,5.2.2,7.9l.3,3.8.2,2a4.3,4.3,0,0,0,.4,1.9,1.1,1.1,0,0,1-.4,1.6,1.1,1.1,0,0,1-1.6-.4,1,1,0,0,1-.1-.9Z" transform="translate(-162.7 -135)"></path><path class="cls-131" d="M1337.1,1040.9h-16.5v-39.1h-21.8v39.1h-16.5V951.6h16.5v35.5h21.8V951.6h16.5Z" transform="translate(-162.7 -135)"></path><path class="cls-132" d="M1413.9,996.1c0,14.8-2.8,26.2-8.3,34.1s-13.4,11.9-23.6,11.9-18.2-3.9-23.7-11.9-8.3-19.3-8.3-34.2,2.8-26.1,8.3-33.9,13.4-11.9,23.8-11.9,18.1,4,23.6,11.9S1413.9,981.4,1413.9,996.1Zm-47,0c0,10.2,1.3,18,3.8,23.3s6.3,8,11.3,8c9.9,0,14.9-10.4,14.9-31.3s-4.9-31.2-14.8-31.2c-5,0-8.8,2.6-11.4,8S1366.9,985.9,1366.9,996.1Z" transform="translate(-162.7 -135)"></path><path class="cls-133" d="M1467.2,1016.3q0,12.5-6.3,19.2c-4.1,4.4-10.2,6.6-18.1,6.6s-14.3-1.5-19.7-4.6v-16.4c6.6,4.4,12.7,6.5,18.3,6.5,3.1,0,5.5-.8,7.1-2.6a10,10,0,0,0,2.4-7.1,13.2,13.2,0,0,0-2.9-8.2,43,43,0,0,0-9.4-8.2,39.4,39.4,0,0,1-8.6-7.6,27,27,0,0,1-4.6-8.1,30.5,30.5,0,0,1-1.6-10.5c0-7.7,2.1-13.7,6.4-18.2s9.9-6.7,17-6.7a37.4,37.4,0,0,1,19.6,5.7l-5.5,13.3a49.4,49.4,0,0,0-6.1-3,17.2,17.2,0,0,0-6.8-1.4,7.5,7.5,0,0,0-6.2,2.7,11.2,11.2,0,0,0-2.1,7.2,12.3,12.3,0,0,0,2.6,7.9,37.3,37.3,0,0,0,9,7.6c5.8,3.9,9.8,7.9,12.1,12A27.5,27.5,0,0,1,1467.2,1016.3Z" transform="translate(-162.7 -135)"></path><path class="cls-134" d="M1505.4,1040.9H1489V966.2h-17V951.6h50.4v14.6h-17Z" transform="translate(-162.7 -135)"></path><path class="cls-135" d="M1571.9,1040.9h-40V951.6h40V966h-23.5v21.2h21.8v14.4h-21.8v24.8h23.5Z" transform="translate(-162.7 -135)"></path><path class="cls-136" d="M1584.9,1040.9V951.6h16.5v74.8h22.9v14.5Z" transform="translate(-162.7 -135)"></path></svg>